<?xml version="1.0" encoding="utf-8"?>
<!-- Generator: Adobe Illustrator 25.0.1, SVG Export Plug-In . SVG Version: 6.00 Build 0)  -->
<svg version="1.1" id="_x2018_лой_x5F_1" xmlns="http://www.w3.org/2000/svg" xmlns:xlink="http://www.w3.org/1999/xlink"
	 x="0px" y="0px" viewBox="0 0 3200 2000" style="enable-background:new 0 0 3200 2000;" xml:space="preserve">
<style type="text/css">
	.st0{fill:#F2E8DC;}
	.st1{fill:#EADACA;}
	.st2{fill:#CA9E91;}
	.st3{fill:#303030;}
	.st4{fill:#57595B;}
	.st5{fill:#494949;}
	.st6{fill:#DBDBDB;}
	.st7{opacity:0.5;fill:#969696;}
	.st8{fill:#AF796D;}
	.st9{fill:#935950;}
	.st10{fill:#BE7B35;}
	.st11{fill:#8E8E8E;}
	.st12{fill:#174948;}
	.st13{fill:#1F6565;}
	.st14{fill:#FFB27D;}
	.st15{fill:#ED975D;}
	.st16{fill:#FFFFFF;}
	.st17{fill:#C1C1C1;}
	.st18{fill:#3A280E;}
</style>
<g>
	<path class="st0" d="M289.8,1811.6c0,0-199-155.4-60.2-526.9c81.8-219,357.8-185.4,343.8-578.8c-14-393.4,240.4-564.9,696.4-386.3
		c329.1,128.9,822.5-454.2,1230.5,278.7c157.3,282.7,432.7,246,506,763c20,141.3-10,289.2-158.5,450.3H289.8z"/>
	<path class="st1" d="M1494.2,868.4l23.8-17.6c2-1.5,4.6-1.7,6.8-0.5c2.8,1.4,5.7,2.8,8.6,4c5.5,2.3,11,4.1,16.6,5.4
		c2.6,0.6,4.6,2.7,5,5.4l4.7,30.6c0.5,3.3,3.4,5.6,6.8,5.4l28.3-1.9c3.2-0.2,5.7-2.8,5.9-6l1.2-28.5c0.1-2.8,2-5.2,4.7-5.9
		c11.6-3.2,22.7-8.2,32.9-14.9c2.4-1.6,5.8-1.3,7.9,0.6l12.8,11.7c2.5,2.2,6.2,2.3,8.7,0.1l21-18.6c0.4-0.4,0.8-0.8,1.1-1.3
		c1.5-2.2,1.5-5.2-0.2-7.4l-13.2-17.8l-3.2-4.3c2.7-4.5,5.1-9.3,7.1-14.3c2.8-6.7,4.9-13.6,6.3-20.4c0.5-2.6,2.6-4.6,5.2-5l24.7-3.8
		c3.4-0.5,5.8-3.5,5.5-6.9l-1.4-21.6l-0.4-6.2c-0.2-3.4-3-6.1-6.3-6.2l-23.8-1c-2.8-0.1-5.2-1.9-5.9-4.5c-2.4-7.8-5.5-15.3-9.5-22.4
		c-0.3-0.6-0.6-1.2-1-1.8c-0.1-0.2-0.2-0.4-0.3-0.6c-1.1-2.4-0.6-5.1,1.2-7.1l19-20.8c0.2-0.2,0.4-0.5,0.6-0.7
		c1.6-2.4,1.4-5.7-0.5-7.9l-18.6-21c-2.2-2.5-6-2.9-8.8-0.9l-24.8,18.4c-2.1,1.6-4.9,1.7-7.2,0.3c-4.9-3-10.2-5.6-15.7-7.9
		c-2.9-1.2-5.9-2.3-8.8-3.2c-2.4-0.8-4.2-2.8-4.6-5.3l-4.5-29.4c-0.5-3.2-3.4-5.6-6.7-5.4l-27.9,1.9c-3.4,0.2-6.1,2.9-6.2,6.4
		l-1,22.5c-0.1,3-2.3,5.5-5.2,6.1c-11.6,2.3-22.7,6.3-33.1,12c-2.4,1.4-5.5,1-7.6-0.9l-18.8-17.1c-2.5-2.3-6.4-2.3-8.9-0.1
		l-20.9,18.5c-2.5,2.2-2.9,6-0.9,8.6l0.8,1l15.3,20.7c1.6,2.2,1.7,5.2,0.2,7.5l0,0c-3.6,5.6-6.7,11.5-9.3,17.9
		c-1.4,3.4-2.6,6.8-3.6,10.2c-0.7,2.4-2.7,4.2-5.2,4.5l-25,3.8c-3.4,0.5-5.9,3.6-5.6,7l1.9,27.8c0.1,0.8,0.3,1.5,0.6,2.2
		c1,2.2,3.2,3.8,5.7,3.9l19,0.8c2.3,0.1,4.4,1.5,5.5,3.5c0.3,0.5,0.5,1.1,0.6,1.7c3,14.9,8.9,28.9,17.4,41.5c1.5,2.1,1.4,4.9,0.1,7
		c-0.2,0.3-0.4,0.6-0.7,0.9l-15.4,16.9c-2.2,2.4-2.3,6.2-0.1,8.7l0.4,0.5l18.1,20.5C1487.6,870.1,1491.4,870.4,1494.2,868.4z
		 M1615.2,701.5c3.6,2.8,7,6,10.3,9.8c6.2,7.1,11.9,20.7,12.5,30.1c0.1,1,0.1,2,0.2,3c1.9,60.7-68.8,89.4-109.8,43.5
		c-5.4-6-10.3-16.5-12.2-25.5c-0.4-2.1-0.8-4.1-0.8-5.9c-0.5-8.6,0.4-16.5,2.5-23.8C1529.6,691.3,1579.4,673.7,1615.2,701.5z"/>
	<path class="st1" d="M1684,575.2l20.4-11.1c1.7-0.9,3.8-0.8,5.4,0.3c2,1.4,4.1,2.8,6.3,4c4,2.4,8.1,4.4,12.3,6
		c2,0.8,3.3,2.6,3.3,4.7l0.3,24.3c0,2.6,2,4.8,4.7,4.9l22.2,1.7c2.5,0.2,4.7-1.5,5.2-4l4.1-22c0.4-2.1,2.1-3.8,4.3-4.1
		c9.4-1.2,18.6-3.9,27.2-8c2.1-1,4.6-0.4,6.1,1.4l8.7,10.5c1.7,2,4.6,2.4,6.8,1l18.4-12.2c0.4-0.2,0.7-0.5,1-0.9
		c1.4-1.5,1.7-3.9,0.7-5.7l-8.3-15.3l-2-3.7c2.6-3.2,5-6.7,7.1-10.4c2.9-4.9,5.3-10,7.1-15.2c0.7-2,2.5-3.3,4.6-3.3l19.6-0.2
		c2.7,0,4.9-2.1,5.1-4.8l1.3-16.9l0.4-4.9c0.2-2.6-1.6-5-4.2-5.5l-18.4-3.4c-2.1-0.4-3.8-2.1-4.1-4.2c-1-6.3-2.6-12.5-4.9-18.4
		c-0.2-0.5-0.4-1-0.6-1.5c-0.1-0.2-0.1-0.3-0.2-0.5c-0.6-2,0.1-4.1,1.7-5.4l17-14.1c0.2-0.1,0.4-0.3,0.5-0.5
		c1.5-1.7,1.7-4.3,0.5-6.2l-12.1-18.4c-1.5-2.2-4.4-2.9-6.7-1.7l-21.3,11.6c-1.8,1-4,0.8-5.6-0.6c-3.5-2.9-7.3-5.5-11.3-7.9
		c-2.1-1.3-4.3-2.4-6.5-3.5c-1.8-0.9-2.9-2.7-2.9-4.6l-0.3-23.4c0-2.6-2-4.7-4.6-4.9l-21.9-1.6c-2.6-0.2-5,1.6-5.5,4.3l-3.2,17.4
		c-0.4,2.3-2.4,4-4.7,4.2c-9.3,0.5-18.4,2.4-27,5.7c-2,0.8-4.4,0.2-5.8-1.5l-12.7-15.4c-1.7-2.1-4.7-2.5-6.9-1l-18.3,12
		c-2.2,1.4-2.9,4.4-1.7,6.6l0.5,0.9l9.6,17.7c1,1.9,0.8,4.2-0.6,5.8l0,0c-3.4,3.9-6.5,8.2-9.2,12.9c-1.5,2.5-2.8,5-4,7.5
		c-0.8,1.8-2.6,2.9-4.5,3l-19.9,0.2c-2.7,0-5,2.1-5.2,4.8l-1.6,21.8c0,0.6,0,1.2,0.2,1.8c0.5,1.8,2.1,3.3,4,3.6l14.7,2.7
		c1.8,0.4,3.3,1.6,3.9,3.3c0.2,0.4,0.3,0.9,0.3,1.4c0.7,11.9,3.7,23.5,8.9,34.2c0.9,1.8,0.6,4-0.7,5.5c-0.2,0.2-0.4,0.4-0.6,0.6
		l-13.8,11.4c-2,1.6-2.4,4.5-1,6.7l0.3,0.4l11.8,17.9C1678.7,575.7,1681.6,576.4,1684,575.2z M1796.4,458.9c2.5,2.6,4.8,5.5,6.9,8.7
		c4,6.2,7,17.4,6.4,24.8c-0.1,0.8-0.1,1.6-0.2,2.4c-5.2,47.4-63.3,61.9-90.1,21.6c-3.5-5.3-6.1-13.9-6.7-21.2
		c-0.1-1.7-0.1-3.3,0-4.7c0.5-6.7,2.1-12.8,4.5-18.2C1731.1,441.5,1771.7,433.3,1796.4,458.9z"/>
	<path class="st1" d="M2600.2,1484l25.2-13.7c2.1-1.1,4.7-1,6.6,0.4c2.5,1.8,5.1,3.4,7.7,5c5,2.9,10,5.4,15.2,7.5c2.4,1,4,3.2,4,5.8
		l0.3,30c0,3.2,2.5,5.9,5.7,6.1l27.4,2.1c3.1,0.2,5.8-1.9,6.4-4.9l5-27.2c0.4-2.7,2.6-4.7,5.4-5c11.6-1.5,22.9-4.8,33.6-9.8
		c2.6-1.2,5.7-0.5,7.5,1.7l10.7,13c2.1,2.4,5.6,3,8.3,1.3l22.7-15c0.5-0.3,0.9-0.6,1.2-1.1c1.7-1.9,2.1-4.8,0.8-7.1l-10.2-18.9
		l-2.5-4.6c3.2-4,6.1-8.3,8.8-12.8c3.6-6.1,6.5-12.4,8.8-18.7c0.9-2.4,3.1-4.1,5.7-4.1l24.2-0.2c3.3-0.1,6-2.6,6.3-5.9l1.6-20.9
		l0.4-6c0.3-3.3-2-6.2-5.2-6.8l-22.7-4.2c-2.6-0.5-4.7-2.5-5-5.1c-1.2-7.8-3.2-15.4-6-22.8c-0.2-0.7-0.4-1.2-0.7-1.9
		c-0.1-0.2-0.2-0.4-0.2-0.6c-0.7-2.4,0.1-5,2.1-6.6l21-17.4c0.3-0.2,0.5-0.4,0.7-0.6c1.9-2.1,2.2-5.3,0.6-7.7l-14.9-22.7
		c-1.8-2.7-5.4-3.6-8.3-2.1l-26.3,14.3c-2.2,1.2-5,0.9-6.9-0.7c-4.3-3.5-9-6.8-14-9.7c-2.6-1.6-5.3-3-8-4.3
		c-2.2-1.1-3.6-3.3-3.6-5.7l-0.3-28.8c0-3.2-2.5-5.8-5.7-6.1l-27.1-2c-3.3-0.3-6.2,2-6.8,5.2l-4,21.5c-0.5,2.9-2.9,5-5.8,5.2
		c-11.4,0.6-22.7,3-33.4,7c-2.5,1-5.4,0.2-7.1-1.9l-15.7-19c-2.1-2.5-5.8-3.1-8.5-1.3l-22.6,14.9c-2.7,1.8-3.6,5.4-2,8.2l0.6,1.1
		l11.9,21.9c1.3,2.3,1,5.2-0.8,7.2l0,0c-4.2,4.9-8,10.1-11.3,15.9c-1.8,3.1-3.4,6.1-4.9,9.3c-1,2.2-3.2,3.6-5.6,3.6l-24.5,0.2
		c-3.4,0-6.1,2.6-6.4,6l-2,27c-0.1,0.8,0.1,1.5,0.2,2.2c0.6,2.2,2.5,4,4.9,4.5l18.1,3.3c2.2,0.4,4,2,4.8,4.1
		c0.2,0.5,0.3,1.1,0.4,1.7c0.8,14.7,4.6,29,11,42.2c1.1,2.2,0.7,4.9-0.9,6.8c-0.2,0.3-0.5,0.5-0.8,0.7l-17,14.1
		c-2.5,2-3,5.6-1.3,8.3l0.3,0.5l14.5,22.1C2593.7,1484.7,2597.3,1485.6,2600.2,1484z M2739.1,1340.4c3,3.2,5.9,6.8,8.5,10.8
		c5,7.7,8.6,21.5,7.9,30.6c-0.1,1-0.2,1.9-0.3,2.9c-6.4,58.5-78.1,76.4-111.2,26.7c-4.3-6.5-7.6-17.2-8.3-26.1
		c-0.1-2.1-0.2-4.1,0-5.8c0.7-8.3,2.6-15.8,5.6-22.5C2658.4,1319,2708.5,1308.9,2739.1,1340.4z"/>
	<path class="st2" d="M2749.6,1222.4l13.5-7.3c1.1-0.6,2.5-0.5,3.5,0.2c1.3,0.9,2.7,1.8,4.1,2.7c2.7,1.6,5.4,2.9,8.1,4
		c1.3,0.5,2.2,1.7,2.2,3.1l0.2,16.1c0,1.7,1.3,3.1,3.1,3.3l14.6,1.1c1.7,0.1,3.1-1,3.4-2.6l2.7-14.5c0.2-1.4,1.4-2.5,2.9-2.7
		c6.2-0.8,12.3-2.6,18-5.3c1.4-0.7,3.1-0.3,4,0.9l5.7,6.9c1.1,1.3,3,1.6,4.5,0.7l12.2-8c0.3-0.2,0.5-0.3,0.7-0.6
		c0.9-1,1.1-2.5,0.4-3.8l-5.5-10.1l-1.3-2.5c1.7-2.1,3.3-4.4,4.7-6.8c1.9-3.2,3.5-6.6,4.7-10c0.5-1.3,1.7-2.2,3.1-2.2l12.9-0.1
		c1.8,0,3.2-1.4,3.3-3.1l0.8-11.2l0.2-3.2c0.1-1.7-1.1-3.3-2.8-3.6l-12.1-2.3c-1.4-0.2-2.5-1.4-2.7-2.8c-0.6-4.2-1.7-8.3-3.2-12.2
		c-0.1-0.4-0.2-0.7-0.4-1c-0.1-0.1-0.1-0.2-0.1-0.3c-0.4-1.3,0.1-2.7,1.1-3.5l11.3-9.3c0.1-0.1,0.2-0.2,0.4-0.3
		c1-1.1,1.2-2.8,0.3-4.1l-8-12.1c-1-1.5-2.9-1.9-4.4-1.1l-14.1,7.6c-1.2,0.7-2.6,0.5-3.7-0.4c-2.3-1.9-4.8-3.6-7.5-5.2
		c-1.4-0.8-2.9-1.6-4.3-2.3c-1.2-0.6-1.9-1.8-1.9-3.1l-0.2-15.4c0-1.7-1.3-3.1-3-3.2l-14.5-1.1c-1.7-0.1-3.3,1.1-3.7,2.8l-2.1,11.5
		c-0.3,1.5-1.6,2.7-3.1,2.8c-6.1,0.3-12.1,1.6-17.9,3.7c-1.3,0.5-2.9,0.1-3.8-1l-8.4-10.1c-1.1-1.4-3.1-1.6-4.6-0.7l-12.1,8
		c-1.5,1-1.9,2.9-1.1,4.4l0.3,0.6l6.3,11.7c0.7,1.3,0.5,2.8-0.4,3.9l0,0c-2.2,2.6-4.3,5.4-6.1,8.5c-1,1.6-1.8,3.3-2.6,5
		c-0.5,1.2-1.7,1.9-3,2l-13.1,0.1c-1.8,0-3.3,1.4-3.4,3.2l-1.1,14.4c0,0.4,0,0.8,0.1,1.2c0.3,1.2,1.4,2.2,2.6,2.4l9.7,1.8
		c1.2,0.2,2.2,1.1,2.6,2.2c0.1,0.3,0.2,0.6,0.2,0.9c0.4,7.8,2.4,15.5,5.9,22.6c0.6,1.2,0.4,2.6-0.5,3.6c-0.1,0.1-0.3,0.3-0.4,0.4
		l-9.1,7.5c-1.3,1.1-1.6,3-0.7,4.4l0.2,0.3l7.8,11.8C2746.1,1222.7,2748,1223.2,2749.6,1222.4z M2823.8,1145.6
		c1.6,1.7,3.2,3.6,4.6,5.8c2.7,4.1,4.6,11.5,4.2,16.4c0,0.5-0.1,1-0.1,1.6c-3.4,31.3-41.8,40.9-59.5,14.3c-2.3-3.5-4.1-9.2-4.4-14
		c-0.1-1.1-0.1-2.2,0-3.1c0.4-4.4,1.4-8.5,3-12C2780.7,1134.1,2807.5,1128.7,2823.8,1145.6z"/>
	<path class="st1" d="M501.7,1225.1l14.8-8c1.2-0.7,2.7-0.6,3.9,0.2c1.5,1,3,2,4.5,2.9c2.9,1.7,5.9,3.2,8.9,4.4
		c1.4,0.6,2.4,1.9,2.4,3.4l0.2,17.6c0,1.9,1.5,3.4,3.4,3.6l16,1.2c1.8,0.1,3.4-1.1,3.8-2.9l3-15.9c0.3-1.6,1.5-2.7,3.1-2.9
		c6.8-0.9,13.4-2.8,19.7-5.8c1.5-0.7,3.3-0.3,4.4,1l6.3,7.6c1.2,1.4,3.3,1.8,4.9,0.7l13.3-8.8c0.3-0.2,0.5-0.4,0.7-0.6
		c1-1.1,1.2-2.8,0.5-4.2l-6-11.1l-1.5-2.7c1.9-2.3,3.6-4.9,5.2-7.5c2.1-3.6,3.8-7.3,5.2-11c0.5-1.4,1.8-2.4,3.4-2.4l14.2-0.1
		c1.9,0,3.5-1.5,3.7-3.4l0.9-12.3l0.3-3.5c0.1-1.9-1.2-3.7-3.1-4l-13.3-2.5c-1.5-0.3-2.7-1.5-3-3c-0.7-4.6-1.9-9.1-3.5-13.4
		c-0.1-0.4-0.3-0.7-0.4-1.1c-0.1-0.1-0.1-0.2-0.1-0.4c-0.4-1.4,0.1-2.9,1.2-3.9l12.3-10.2c0.1-0.1,0.3-0.2,0.4-0.4
		c1.1-1.2,1.3-3.1,0.3-4.5l-8.8-13.3c-1.1-1.6-3.2-2.1-4.9-1.2l-15.4,8.4c-1.3,0.7-2.9,0.6-4-0.4c-2.5-2.1-5.3-4-8.2-5.7
		c-1.6-0.9-3.1-1.8-4.7-2.5c-1.3-0.6-2.1-1.9-2.1-3.4l-0.2-16.9c0-1.9-1.5-3.4-3.3-3.6l-15.9-1.2c-1.9-0.1-3.6,1.2-4,3.1l-2.3,12.6
		c-0.3,1.7-1.7,2.9-3.4,3c-6.7,0.3-13.3,1.7-19.6,4.1c-1.5,0.6-3.2,0.1-4.2-1.1l-9.2-11.1c-1.2-1.5-3.4-1.8-5-0.8l-13.3,8.7
		c-1.6,1-2.1,3.2-1.2,4.8l0.3,0.7l7,12.9c0.7,1.4,0.6,3-0.5,4.2l0,0c-2.4,2.8-4.7,5.9-6.6,9.3c-1.1,1.8-2,3.6-2.9,5.5
		c-0.6,1.3-1.9,2.1-3.3,2.1l-14.4,0.1c-2,0-3.6,1.5-3.7,3.5l-1.2,15.8c0,0.5,0,0.9,0.1,1.3c0.4,1.3,1.5,2.4,2.9,2.6l10.6,2
		c1.3,0.3,2.4,1.2,2.8,2.4c0.1,0.3,0.2,0.7,0.2,1c0.5,8.6,2.7,17,6.5,24.7c0.7,1.3,0.4,2.9-0.5,4c-0.1,0.2-0.3,0.3-0.5,0.4l-10,8.3
		c-1.4,1.2-1.8,3.3-0.7,4.9l0.2,0.3l8.5,13C497.9,1225.5,500,1226,501.7,1225.1z M583.2,1140.9c1.8,1.9,3.5,4,5,6.3
		c2.9,4.5,5,12.6,4.6,17.9c0,0.6-0.1,1.1-0.1,1.7c-3.8,34.3-45.8,44.8-65.3,15.7c-2.5-3.8-4.5-10.1-4.8-15.3c-0.1-1.2-0.1-2.4,0-3.4
		c0.4-4.9,1.5-9.3,3.3-13.2C535.9,1128.3,565.2,1122.4,583.2,1140.9z"/>
	<path class="st1" d="M1852.3,977.2l38.1-27.2c3.2-2.2,7.4-2.5,10.8-0.7c4.4,2.3,8.9,4.5,13.5,6.5c8.6,3.7,17.3,6.8,26.1,9
		c4.1,1,7.2,4.4,7.7,8.6l6.6,48.5c0.7,5.2,5.2,9,10.5,8.7l44.7-2.2c5.1-0.3,9.1-4.3,9.4-9.3l2.7-45c0.2-4.4,3.3-8.1,7.6-9.2
		c18.4-4.7,36.1-12.4,52.3-22.7c3.9-2.5,9.1-2,12.5,1.2l19.9,18.8c3.8,3.5,9.7,3.8,13.7,0.4l33.7-28.9c0.7-0.6,1.3-1.2,1.8-2
		c2.4-3.4,2.4-8.1-0.1-11.6l-20.3-28.4l-5-6.9c4.3-7.1,8.3-14.6,11.6-22.5c4.6-10.5,8-21.3,10.4-32.1c0.9-4.1,4.2-7.2,8.4-7.8
		l39-5.3c5.3-0.8,9.2-5.4,8.9-10.8l-1.7-34.1l-0.5-9.8c-0.3-5.3-4.5-9.7-9.8-10l-37.6-2.2c-4.4-0.2-8.1-3.2-9.2-7.3
		c-3.5-12.4-8.3-24.3-14.3-35.6c-0.4-1-1-1.9-1.5-2.9c-0.2-0.3-0.3-0.6-0.5-1c-1.7-3.8-0.8-8.1,2-11.1l30.5-32.4
		c0.4-0.3,0.7-0.8,0.9-1.2c2.6-3.8,2.4-9-0.6-12.5l-28.7-33.6c-3.5-4.1-9.4-4.8-13.8-1.7l-39.7,28.4c-3.3,2.5-7.8,2.5-11.3,0.3
		c-7.7-4.8-15.9-9.1-24.6-12.9c-4.6-2-9.2-3.8-13.9-5.3c-3.8-1.3-6.5-4.6-7-8.5l-6.4-46.6c-0.7-5.1-5.2-8.9-10.4-8.7l-44.2,2.2
		c-5.3,0.3-9.7,4.5-10,9.9l-2.1,35.6c-0.3,4.8-3.7,8.7-8.4,9.6c-18.4,3.3-36.1,9.4-52.6,18.1c-3.9,2.1-8.7,1.5-11.9-1.6l-29.2-27.5
		c-3.9-3.7-10-3.8-14.1-0.3l-33.5,28.6c-4,3.4-4.7,9.4-1.7,13.6l1.2,1.7l23.6,33c2.5,3.5,2.6,8.2,0.2,11.8l0,0
		c-5.8,8.7-10.8,18-15.1,28c-2.3,5.3-4.2,10.6-6,16c-1.2,3.8-4.4,6.5-8.3,7l-39.6,5.4c-5.4,0.7-9.4,5.5-9.1,10.9l2.2,44
		c0.1,1.3,0.4,2.4,0.8,3.5c1.5,3.5,4.9,6,8.9,6.3l30,1.7c3.7,0.3,7,2.4,8.6,5.6c0.4,0.8,0.7,1.8,0.9,2.7c4.3,23.5,13.3,45.9,26.4,66
		c2.3,3.4,2.2,7.8,0,11.1c-0.3,0.5-0.7,0.9-1.1,1.4l-24.7,26.2c-3.6,3.8-3.7,9.7-0.3,13.7l0.7,0.8l28,32.8
		C1841.9,979.6,1847.9,980.4,1852.3,977.2z M2047.8,716.9c5.6,4.5,10.9,9.7,16,15.7c9.6,11.4,18.3,33,19,47.8
		c0.1,1.6,0.1,3.2,0.2,4.7c1.4,95.9-110.9,139.4-174.5,65.7c-8.3-9.6-15.8-26.3-18.6-40.6c-0.6-3.3-1.1-6.5-1.2-9.4
		c-0.6-13.6,1-26.1,4.5-37.5C1913,698.5,1991.9,672.1,2047.8,716.9z"/>
	<path class="st1" d="M671.3,896.4c11.9-60.4,113.3-48.9,113.3-48.9s75.2,99,95.1,100.1c19.9,1.1-47.8-97.2-47.8-97.2
		c38-6.4,138.9,33.7,138.9,33.7s2.3,121.5,21.9,117.6c19.6-3.9-7.5-107.5-7.5-107.5c37.8,8.5,75.4,49.3,75.4,49.3
		c48.2,67.4-40.9,125.7-40.9,125.7s1.7,42.1,31,88.4l0,0c0,0,6.5,8.5,13.5,23.2l-10.1,0.7c-1-2.7-2.1-5.2-3.3-7.7c0,0,0,0,0,0
		c0,0,0-0.1-0.1-0.1c-0.8-1.5-2-3.7-3.4-6.3c0,0,0,0,0,0c0,0,0,0,0,0c-3.5-5.8-5.9-10.1-7.5-13.3c0,0,0,0,0,0
		c-10.6-18.3-25.6-42.1-34.9-46.7c0,0,1-1.7,1.8-4.8c-0.6,1.5-1.2,3.1-1.8,4.8c-14.7,38.3-100.7,50.5-149.6,44s-28.8-21.6-4.4-45.4
		c24.4-23.9,79.2-21.9,94.6-31.6c15.5-9.8-8.6-16.8-40.6-12.1c-31.9,4.7-45.8,38-97.3,46.5c-51.5,8.6-97.9-86.2-97.9-86.2
		c36.6,8.6,99.4-15.6,101.1-28.2c1.6-12.5-93.4-4.6-108.5-7.3C687.4,984.7,659.4,956.9,671.3,896.4z"/>
	<path class="st3" d="M1487.6,1126.3l-53.6,637.4c0,0-5.6,38.6,23.1,38.7c47.3,0.1,235.2,0,235.2,0s-35.6-8-35.1-26.1
		c0.5-21.3,62.7-656,62.7-656L1487.6,1126.3z"/>
	<path class="st4" d="M1707.6,1790.8c-9.3,0-188.8,0.6-234.8,0c-20.1-0.2-23.6-17.8-23.7-29.2c-0.1-5.5,0.6-9.5,0.6-9.5l1.4-16.6
		l3.6-42.2l3.1-37.3l4-47.9l3.4-40.5l38.1-452.9l232.2-6c0,0-26.2,265.6-44.7,458.9c-2.1,21.5-4,42.2-5.9,61.5
		c-0.6,6.2-1.2,12.2-1.7,18c-1.7,18.3-3.3,35.1-4.7,49.9c-0.7,7.8-1.4,15.1-2,21.7c-2.4,26.1-3.7,42.7-3.8,45.9
		c0,1.8,0.1,3.6,0.5,5.2C1677.1,1790.1,1704.1,1790.8,1707.6,1790.8z"/>
	<polygon class="st4" points="923.6,779.4 1054.2,1303.9 1072.1,1375.8 1132.9,1620.1 2262.8,1620.1 2038.6,779.4 	"/>
	<polygon class="st3" points="923.6,779.4 905.5,785.5 1108.8,1638.3 1132.9,1620.1 	"/>
	<polygon class="st3" points="1108.8,1638.3 2231.7,1638.3 2262.8,1620.1 1132.9,1620.1 	"/>
	
		<rect x="1503.2" y="1791.1" transform="matrix(-1 -1.224647e-16 1.224647e-16 -1 3249.4722 3593.6904)" class="st4" width="243.1" height="11.6"/>
	<polygon class="st5" points="1684.5,1638.3 1683.2,1647.1 1454.6,1693.3 1457.7,1656 1459.2,1638.3 	"/>
	<path class="st5" d="M1707.6,1790.8c-9.3,0-188.8,0.6-234.8,0c-20.1-0.2-23.6-17.8-23.7-29.2l227.6-42.8
		c-2.4,26.1-3.7,42.7-3.8,45.9c0,1.8,0.1,3.6,0.5,5.2C1677.1,1790.1,1704.1,1790.8,1707.6,1790.8z"/>
	<polygon class="st5" points="1629.2,1449.9 1132.9,1620.1 1072.1,1375.8 	"/>
	<polygon class="st6" points="923.6,779.4 2038.6,779.4 2218.1,1455 1091.9,1455 	"/>
	<polygon class="st7" points="968.6,812.5 1128.7,1428 2164.1,1428 2002.2,819.6 	"/>
	<rect x="1343.4" y="1171.7" class="st8" width="391.6" height="247.1"/>
	<rect x="1539.2" y="1171.7" class="st2" width="391.6" height="247.1"/>
	<polygon class="st9" points="1539.2,1208.2 1456.6,1290.8 1343.6,1290.8 1343.6,1171.7 1539.2,1171.7 	"/>
	<polygon class="st2" points="1343.4,1171.7 1255.3,1256.7 1451.3,1256.7 1539.2,1171.7 	"/>
	<polygon class="st8" points="1930.8,1180.5 1539.2,1171.7 1539.2,1203 1539.2,1203 1539.2,1208.2 1612,1288 1930.8,1288 
		1930.8,1208.5 1928.8,1206.2 1930.8,1206.2 	"/>
	<polygon class="st2" points="1539.2,1171.7 1616.7,1256.7 2003.1,1256.7 1930.8,1171.7 	"/>
	<path class="st10" d="M2961.7,1809.2H176c-1.6,0-3-1.3-3-3v-0.6c0-1.6,1.3-3,3-3h2785.7c1.6,0,3,1.3,3,3v0.6
		C2964.7,1807.9,2963.3,1809.2,2961.7,1809.2z"/>
	<path class="st10" d="M1095.3,1000.3c-1.3-5.2,1-9.3,5.8-9.3c4.8,0,9,4,10.3,9.3c1.3,5.2-1,9.3-5.8,9.3
		C1100.7,1009.5,1096.5,1005.5,1095.3,1000.3z M1107.3,1000.2c-0.8-3.3-3-5.7-5.4-5.7c-2.4,0-3.4,2.4-2.6,5.7c0.8,3.3,3,5.7,5.4,5.7
		C1107.2,1006,1108.1,1003.5,1107.3,1000.2z"/>
	<path class="st11" d="M1025.6,865.3l-3,0.8l-1.6-3.2l4.8-1.5l2.7,0l4.4,18.1l-3.9,0L1025.6,865.3z"/>
	<path class="st11" d="M1039.7,870.4c-1.3-5.2,1-9.3,5.8-9.3c4.8,0,9,4,10.3,9.3c1.3,5.2-1,9.3-5.8,9.3
		C1045.1,879.7,1041,875.7,1039.7,870.4z M1051.7,870.4c-0.8-3.3-3-5.7-5.4-5.7c-2.4,0-3.4,2.4-2.6,5.7c0.8,3.3,3,5.7,5.4,5.7
		C1051.6,876.1,1052.5,873.7,1051.7,870.4z"/>
	<path class="st11" d="M1357.4,864.7l-3,0.8l-1.6-3.2l4.8-1.5l2.7,0l4.4,18.1l-3.9,0L1357.4,864.7z"/>
	<path class="st11" d="M1371.6,869.8c-1.3-5.2,1-9.3,5.8-9.3c4.8,0,9,4,10.3,9.3c1.3,5.2-1,9.3-5.8,9.3
		C1377,879.1,1372.9,875.1,1371.6,869.8z M1383.6,869.8c-0.8-3.3-3-5.7-5.4-5.7c-2.4,0-3.4,2.4-2.6,5.7c0.8,3.3,3,5.7,5.4,5.7
		C1383.5,875.5,1384.4,873.1,1383.6,869.8z"/>
	<path class="st11" d="M1395.7,869.8c-1.3-5.2,1-9.3,5.8-9.3c4.8,0,9,4,10.3,9.3c1.3,5.2-1,9.3-5.8,9.3
		C1401.1,879.1,1397,875,1395.7,869.8z M1407.7,869.8c-0.8-3.3-3-5.7-5.4-5.7c-2.4,0-3.4,2.4-2.6,5.7c0.8,3.3,3,5.7,5.4,5.7
		C1407.6,875.5,1408.5,873.1,1407.7,869.8z"/>
	<path class="st11" d="M1519,869.8c-1.3-5.2,1-9.3,5.8-9.3c4.8,0,9,4,10.3,9.3c1.3,5.2-1,9.3-5.8,9.3
		C1524.5,879.1,1520.3,875.1,1519,869.8z M1531.1,869.8c-0.8-3.3-3-5.7-5.4-5.7c-2.4,0-3.4,2.4-2.6,5.7c0.8,3.3,3,5.7,5.4,5.7
		C1530.9,875.5,1531.9,873.1,1531.1,869.8z"/>
	<path class="st11" d="M1543.2,869.8c-1.3-5.2,1-9.3,5.8-9.3c4.8,0,9,4,10.3,9.3c1.3,5.2-1,9.3-5.8,9.3
		C1548.6,879.1,1544.4,875,1543.2,869.8z M1555.2,869.8c-0.8-3.3-3-5.7-5.4-5.7c-2.4,0-3.4,2.4-2.6,5.7c0.8,3.3,3,5.7,5.4,5.7
		C1555,875.5,1556,873.1,1555.2,869.8z"/>
	<path class="st11" d="M1567.3,869.7c-1.3-5.2,1-9.3,5.8-9.3c4.8,0,9,4,10.3,9.3c1.3,5.2-1,9.3-5.8,9.3
		C1572.7,879,1568.5,875,1567.3,869.7z M1579.3,869.7c-0.8-3.3-3-5.7-5.4-5.7c-2.4,0-3.4,2.4-2.6,5.7c0.8,3.3,3,5.7,5.4,5.7
		C1579.2,875.4,1580.1,873,1579.3,869.7z"/>
	<path class="st11" d="M1734.9,869.3c-1.3-5.2,1-9.3,5.8-9.3c4.8,0,9,4,10.3,9.3c1.3,5.2-1,9.3-5.8,9.3S1736.2,874.6,1734.9,869.3z
		 M1747,869.3c-0.8-3.3-3-5.7-5.4-5.7c-2.4,0-3.4,2.4-2.6,5.7c0.8,3.3,3,5.7,5.4,5.7C1746.8,875,1747.8,872.6,1747,869.3z"/>
	<path class="st11" d="M1758,869.3c-1.3-5.2,1-9.3,5.8-9.3c4.8,0,9,4,10.3,9.3c1.3,5.2-1,9.3-5.8,9.3
		C1763.4,878.6,1759.3,874.5,1758,869.3z M1770,869.3c-0.8-3.3-3-5.7-5.4-5.7c-2.4,0-3.4,2.4-2.6,5.7c0.8,3.3,3,5.7,5.4,5.7
		C1769.9,875,1770.8,872.6,1770,869.3z"/>
	<path class="st11" d="M1783.1,869.2c-1.3-5.2,1-9.3,5.8-9.3c4.8,0,9,4,10.3,9.3c1.3,5.2-1,9.3-5.8,9.3S1784.4,874.5,1783.1,869.2z
		 M1795.1,869.2c-0.8-3.3-3-5.7-5.4-5.7c-2.4,0-3.4,2.4-2.6,5.7c0.8,3.3,3,5.7,5.4,5.7C1795,874.9,1795.9,872.5,1795.1,869.2z"/>
	<path class="st11" d="M1824.1,869.2c-1.3-5.2,1-9.3,5.8-9.3c4.8,0,9,4,10.3,9.3c1.3,5.2-1,9.3-5.8,9.3
		C1829.5,878.5,1825.4,874.4,1824.1,869.2z M1836.1,869.2c-0.8-3.3-3-5.7-5.4-5.7c-2.4,0-3.4,2.4-2.6,5.7c0.8,3.3,3,5.7,5.4,5.7
		C1836,874.9,1836.9,872.5,1836.1,869.2z"/>
	<path class="st11" d="M1850.1,864l-3,0.8l-1.6-3.2l4.8-1.5l2.7,0l4.4,18.1l-3.9,0L1850.1,864z"/>
	<path class="st11" d="M1864.2,869.1c-1.3-5.2,1-9.3,5.8-9.3c4.8,0,9,4,10.3,9.3c1.3,5.2-1,9.3-5.8,9.3S1865.5,874.4,1864.2,869.1z
		 M1876.2,869.1c-0.8-3.3-3-5.7-5.4-5.7s-3.4,2.4-2.6,5.7c0.8,3.3,3,5.7,5.4,5.7C1876.1,874.8,1877,872.4,1876.2,869.1z"/>
	<path class="st11" d="M1904.4,869c-1.3-5.2,1-9.3,5.8-9.3c4.8,0,9,4,10.3,9.3c1.3,5.2-1,9.3-5.8,9.3
		C1909.8,878.3,1905.7,874.3,1904.4,869z M1916.4,869c-0.8-3.3-3-5.7-5.4-5.7s-3.4,2.4-2.6,5.7c0.8,3.3,3,5.7,5.4,5.7
		C1916.3,874.7,1917.2,872.3,1916.4,869z"/>
	<path class="st11" d="M1209,909.2c-1.3-5.2,1-9.3,5.8-9.3c4.8,0,9,4,10.3,9.3c1.3,5.2-1,9.3-5.8,9.3
		C1214.4,918.5,1210.2,914.5,1209,909.2z M1221,909.2c-0.8-3.3-3-5.7-5.4-5.7c-2.4,0-3.4,2.4-2.6,5.7c0.8,3.3,3,5.7,5.4,5.7
		C1220.8,914.9,1221.8,912.5,1221,909.2z"/>
	<path class="st11" d="M1233.1,909.2c-1.3-5.2,1-9.3,5.8-9.3c4.8,0,9,4,10.3,9.3c1.3,5.2-1,9.3-5.8,9.3
		C1238.5,918.5,1234.3,914.4,1233.1,909.2z M1245.1,909.2c-0.8-3.3-3-5.7-5.4-5.7c-2.4,0-3.4,2.4-2.6,5.7c0.8,3.3,3,5.7,5.4,5.7
		C1245,914.9,1245.9,912.5,1245.1,909.2z"/>
	<path class="st11" d="M1833.6,908.3c-1.3-5.2,1-9.3,5.8-9.3c4.8,0,9,4,10.3,9.3c1.3,5.2-1,9.3-5.8,9.3S1834.8,913.5,1833.6,908.3z
		 M1845.6,908.2c-0.8-3.3-3-5.7-5.4-5.7c-2.4,0-3.4,2.4-2.6,5.7c0.8,3.3,3,5.7,5.4,5.7C1845.5,914,1846.4,911.5,1845.6,908.2z"/>
	<path class="st11" d="M1859.5,903.1l-3,0.8l-1.6-3.2l4.8-1.5l2.7,0l4.4,18.1l-3.9,0L1859.5,903.1z"/>
	<path class="st11" d="M1873.7,908.2c-1.3-5.2,1-9.3,5.8-9.3c4.8,0,9,4,10.3,9.3c1.3,5.2-1,9.3-5.8,9.3
		C1879.1,917.5,1875,913.4,1873.7,908.2z M1885.7,908.2c-0.8-3.3-3-5.7-5.4-5.7c-2.4,0-3.4,2.4-2.6,5.7c0.8,3.3,3,5.7,5.4,5.7
		C1885.6,913.9,1886.5,911.5,1885.7,908.2z"/>
	<path class="st11" d="M1962.1,908c-1.3-5.2,1-9.3,5.8-9.3c4.8,0,9,4,10.3,9.3c1.3,5.2-1,9.3-5.8,9.3
		C1967.5,917.3,1963.4,913.3,1962.1,908z M1974.1,908c-0.8-3.3-3-5.7-5.4-5.7c-2.4,0-3.4,2.4-2.6,5.7c0.8,3.3,3,5.7,5.4,5.7
		S1974.9,911.3,1974.1,908z"/>
	<path class="st11" d="M1988.1,902.8l-3,0.8l-1.6-3.2l4.8-1.5l2.7,0l4.4,18.1l-3.9,0L1988.1,902.8z"/>
	<path class="st11" d="M1188.7,1120.2c-1.3-5.2,1-9.3,5.8-9.3c4.8,0,9,4,10.3,9.3c1.3,5.2-1,9.3-5.8,9.3
		C1194.1,1129.5,1189.9,1125.5,1188.7,1120.2z M1200.7,1120.2c-0.8-3.3-3-5.7-5.4-5.7c-2.4,0-3.4,2.4-2.6,5.7c0.8,3.3,3,5.7,5.4,5.7
		S1201.5,1123.5,1200.7,1120.2z"/>
	<path class="st11" d="M1212.8,1120.2c-1.3-5.2,1-9.3,5.8-9.3c4.8,0,9,4,10.3,9.3c1.3,5.2-1,9.3-5.8,9.3
		C1218.2,1129.5,1214.1,1125.5,1212.8,1120.2z M1224.8,1120.2c-0.8-3.3-3-5.7-5.4-5.7c-2.4,0-3.4,2.4-2.6,5.7c0.8,3.3,3,5.7,5.4,5.7
		C1224.7,1125.9,1225.6,1123.5,1224.8,1120.2z"/>
	<path class="st11" d="M1238.8,1115l-3,0.8l-1.6-3.2l4.8-1.5l2.7,0l4.4,18.1l-3.9,0L1238.8,1115z"/>
	<path class="st11" d="M1277,1120.1c-1.3-5.2,1-9.3,5.8-9.3c4.8,0,9,4,10.3,9.3c1.3,5.2-1,9.3-5.8,9.3
		C1282.5,1129.4,1278.3,1125.3,1277,1120.1z M1289,1120.1c-0.8-3.3-3-5.7-5.4-5.7c-2.4,0-3.4,2.4-2.6,5.7c0.8,3.3,3,5.7,5.4,5.7
		C1288.9,1125.8,1289.8,1123.4,1289,1120.1z"/>
	<path class="st11" d="M1301.1,1120c-1.3-5.2,1-9.3,5.8-9.3c4.8,0,9,4,10.3,9.3c1.3,5.2-1,9.3-5.8,9.3
		C1306.6,1129.3,1302.4,1125.3,1301.1,1120z M1313.2,1120c-0.8-3.3-3-5.7-5.4-5.7c-2.4,0-3.4,2.4-2.6,5.7c0.8,3.3,3,5.7,5.4,5.7
		C1313,1125.7,1314,1123.3,1313.2,1120z"/>
	<path class="st11" d="M1325.2,1120c-1.3-5.2,1-9.3,5.8-9.3c4.8,0,9,4,10.3,9.3c1.3,5.2-1,9.3-5.8,9.3
		C1330.7,1129.3,1326.5,1125.3,1325.2,1120z M1337.3,1120c-0.8-3.3-3-5.7-5.4-5.7c-2.4,0-3.4,2.4-2.6,5.7c0.8,3.3,3,5.7,5.4,5.7
		C1337.1,1125.7,1338.1,1123.3,1337.3,1120z"/>
	<path class="st11" d="M1626.3,1120.2c-1.3-5.2,1-9.3,5.8-9.3c4.8,0,9,4,10.3,9.3c1.3,5.2-1,9.3-5.8,9.3
		C1631.7,1129.5,1627.6,1125.5,1626.3,1120.2z M1638.3,1120.2c-0.8-3.3-3-5.7-5.4-5.7c-2.4,0-3.4,2.4-2.6,5.7c0.8,3.3,3,5.7,5.4,5.7
		S1639.1,1123.5,1638.3,1120.2z"/>
	<path class="st11" d="M1650.4,1120.2c-1.3-5.2,1-9.3,5.8-9.3c4.8,0,9,4,10.3,9.3c1.3,5.2-1,9.3-5.8,9.3
		C1655.9,1129.5,1651.7,1125.5,1650.4,1120.2z M1662.5,1120.2c-0.8-3.3-3-5.7-5.4-5.7c-2.4,0-3.4,2.4-2.6,5.7c0.8,3.3,3,5.7,5.4,5.7
		C1662.3,1125.9,1663.3,1123.5,1662.5,1120.2z"/>
	<path class="st11" d="M1676.4,1115l-3,0.8l-1.6-3.2l4.8-1.5l2.7,0l4.4,18.1l-3.9,0L1676.4,1115z"/>
	<path class="st11" d="M1788,1120.2c-1.3-5.2,1-9.3,5.8-9.3c4.8,0,9,4,10.3,9.3c1.3,5.2-1,9.3-5.8,9.3S1789.3,1125.5,1788,1120.2z
		 M1800,1120.2c-0.8-3.3-3-5.7-5.4-5.7s-3.4,2.4-2.6,5.7c0.8,3.3,3,5.7,5.4,5.7S1800.8,1123.5,1800,1120.2z"/>
	<path class="st11" d="M1812.1,1120.2c-1.3-5.2,1-9.3,5.8-9.3c4.8,0,9,4,10.3,9.3c1.3,5.2-1,9.3-5.8,9.3
		C1817.5,1129.5,1813.4,1125.5,1812.1,1120.2z M1824.1,1120.2c-0.8-3.3-3-5.7-5.4-5.7c-2.4,0-3.4,2.4-2.6,5.7c0.8,3.3,3,5.7,5.4,5.7
		C1824,1125.9,1824.9,1123.5,1824.1,1120.2z"/>
	<path class="st11" d="M1838.1,1115l-3,0.8l-1.6-3.2l4.8-1.5l2.7,0l4.4,18.1l-3.9,0L1838.1,1115z"/>
	<path class="st11" d="M1714.7,1120.1c-1.3-5.2,1-9.3,5.8-9.3c4.8,0,9,4,10.3,9.3c1.3,5.2-1,9.3-5.8,9.3
		C1720.1,1129.4,1715.9,1125.3,1714.7,1120.1z M1726.7,1120.1c-0.8-3.3-3-5.7-5.4-5.7c-2.4,0-3.4,2.4-2.6,5.7c0.8,3.3,3,5.7,5.4,5.7
		C1726.5,1125.8,1727.5,1123.4,1726.7,1120.1z"/>
	<path class="st11" d="M1738.8,1120c-1.3-5.2,1-9.3,5.8-9.3c4.8,0,9,4,10.3,9.3c1.3,5.2-1,9.3-5.8,9.3S1740,1125.3,1738.8,1120z
		 M1750.8,1120c-0.8-3.3-3-5.7-5.4-5.7c-2.4,0-3.4,2.4-2.6,5.7c0.8,3.3,3,5.7,5.4,5.7C1750.7,1125.7,1751.6,1123.3,1750.8,1120z"/>
	<path class="st11" d="M1762.9,1120c-1.3-5.2,1-9.3,5.8-9.3c4.8,0,9,4,10.3,9.3c1.3,5.2-1,9.3-5.8,9.3
		C1768.3,1129.3,1764.2,1125.3,1762.9,1120z M1774.9,1120c-0.8-3.3-3-5.7-5.4-5.7s-3.4,2.4-2.6,5.7c0.8,3.3,3,5.7,5.4,5.7
		C1774.8,1125.7,1775.7,1123.3,1774.9,1120z"/>
	<path class="st11" d="M1407.7,1119.6c-1.3-5.2,1-9.3,5.8-9.3c4.8,0,9,4,10.3,9.3c1.3,5.2-1,9.3-5.8,9.3
		C1413.2,1128.9,1409,1124.9,1407.7,1119.6z M1419.8,1119.6c-0.8-3.3-3-5.7-5.4-5.7c-2.4,0-3.4,2.4-2.6,5.7c0.8,3.3,3,5.7,5.4,5.7
		S1420.6,1122.9,1419.8,1119.6z"/>
	<path class="st11" d="M1433.7,1114.4l-3,0.8l-1.6-3.2l4.8-1.5l2.7,0l4.4,18.1l-3.9,0L1433.7,1114.4z"/>
	<path class="st11" d="M1447.8,1119.5c-1.3-5.2,1-9.3,5.8-9.3c4.8,0,9,4,10.3,9.3c1.3,5.2-1,9.3-5.8,9.3
		C1453.3,1128.8,1449.1,1124.8,1447.8,1119.5z M1459.9,1119.5c-0.8-3.3-3-5.7-5.4-5.7c-2.4,0-3.4,2.4-2.6,5.7c0.8,3.3,3,5.7,5.4,5.7
		C1459.7,1125.2,1460.7,1122.8,1459.9,1119.5z"/>
	<path class="st11" d="M1924.8,1119c-1.3-5.2,1-9.3,5.8-9.3c4.8,0,9,4,10.3,9.3c1.3,5.2-1,9.3-5.8,9.3
		C1930.2,1128.3,1926.1,1124.3,1924.8,1119z M1936.8,1119c-0.8-3.3-3-5.7-5.4-5.7s-3.4,2.4-2.6,5.7c0.8,3.3,3,5.7,5.4,5.7
		C1936.7,1124.7,1937.6,1122.3,1936.8,1119z"/>
	<path class="st11" d="M1950.8,1113.9l-3,0.8l-1.6-3.2l4.8-1.5l2.7,0l4.4,18.1l-3.9,0L1950.8,1113.9z"/>
	<path class="st11" d="M1964.9,1119c-1.3-5.2,1-9.3,5.8-9.3c4.8,0,9,4,10.3,9.3c1.3,5.2-1,9.3-5.8,9.3
		C1970.4,1128.2,1966.2,1124.2,1964.9,1119z M1977,1118.9c-0.8-3.3-3-5.7-5.4-5.7s-3.4,2.4-2.6,5.7c0.8,3.3,3,5.7,5.4,5.7
		C1976.8,1124.7,1977.8,1122.2,1977,1118.9z"/>
	<path class="st11" d="M1046,949.8l-3,0.8l-1.6-3.2l4.8-1.5l2.7,0l4.4,18.1l-3.9,0L1046,949.8z"/>
	<path class="st11" d="M1060.2,954.9c-1.3-5.2,1-9.3,5.8-9.3c4.8,0,9,4,10.3,9.3c1.3,5.2-1,9.3-5.8,9.3
		C1065.6,964.2,1061.4,960.2,1060.2,954.9z M1072.2,954.9c-0.8-3.3-3-5.7-5.4-5.7c-2.4,0-3.4,2.4-2.6,5.7c0.8,3.3,3,5.7,5.4,5.7
		C1072.1,960.6,1073,958.2,1072.2,954.9z"/>
	<path class="st11" d="M1196.7,954.7c-1.3-5.2,1-9.3,5.8-9.3c4.8,0,9,4,10.3,9.3c1.3,5.2-1,9.3-5.8,9.3
		C1202.2,963.9,1198,959.9,1196.7,954.7z M1208.8,954.6c-0.8-3.3-3-5.7-5.4-5.7c-2.4,0-3.4,2.4-2.6,5.7c0.8,3.3,3,5.7,5.4,5.7
		C1208.6,960.4,1209.6,958,1208.8,954.6z"/>
	<path class="st11" d="M1220.9,954.6c-1.3-5.2,1-9.3,5.8-9.3c4.8,0,9,4,10.3,9.3c1.3,5.2-1,9.3-5.8,9.3
		C1226.3,963.9,1222.1,959.9,1220.9,954.6z M1232.9,954.6c-0.8-3.3-3-5.7-5.4-5.7c-2.4,0-3.4,2.4-2.6,5.7c0.8,3.3,3,5.7,5.4,5.7
		C1232.7,960.3,1233.7,957.9,1232.9,954.6z"/>
	<path class="st11" d="M1245,954.6c-1.3-5.2,1-9.3,5.8-9.3c4.8,0,9,4,10.3,9.3c1.3,5.2-1,9.3-5.8,9.3S1246.2,959.8,1245,954.6z
		 M1257,954.6c-0.8-3.3-3-5.7-5.4-5.7c-2.4,0-3.4,2.4-2.6,5.7c0.8,3.3,3,5.7,5.4,5.7C1256.9,960.3,1257.8,957.9,1257,954.6z"/>
	<path class="st11" d="M1270.9,949.4l-3,0.8l-1.6-3.2l4.8-1.5l2.7,0l4.4,18.1l-3.9,0L1270.9,949.4z"/>
	<path class="st11" d="M1287.1,949.4l-3,0.8l-1.6-3.2l4.8-1.5l2.7,0l4.4,18.1l-3.9,0L1287.1,949.4z"/>
	<path class="st11" d="M1301.2,954.5c-1.3-5.2,1-9.3,5.8-9.3c4.8,0,9,4,10.3,9.3c1.3,5.2-1,9.3-5.8,9.3
		C1306.7,963.8,1302.5,959.8,1301.2,954.5z M1313.2,954.5c-0.8-3.3-3-5.7-5.4-5.7c-2.4,0-3.4,2.4-2.6,5.7c0.8,3.3,3,5.7,5.4,5.7
		C1313.1,960.2,1314.1,957.8,1313.2,954.5z"/>
	<path class="st10" d="M1924.9,953.5c-1.3-5.2,1-9.3,5.8-9.3c4.8,0,9,4,10.3,9.3c1.3,5.2-1,9.3-5.8,9.3
		C1930.3,962.8,1926.1,958.7,1924.9,953.5z M1936.9,953.5c-0.8-3.3-3-5.7-5.4-5.7s-3.4,2.4-2.6,5.7c0.8,3.3,3,5.7,5.4,5.7
		C1936.7,959.2,1937.7,956.8,1936.9,953.5z"/>
	<path class="st10" d="M1949,953.4c-1.3-5.2,1-9.3,5.8-9.3c4.8,0,9,4,10.3,9.3c1.3,5.2-1,9.3-5.8,9.3
		C1954.4,962.7,1950.2,958.7,1949,953.4z M1961,953.4c-0.8-3.3-3-5.7-5.4-5.7c-2.4,0-3.4,2.4-2.6,5.7c0.8,3.3,3,5.7,5.4,5.7
		C1960.9,959.1,1961.8,956.7,1961,953.4z"/>
	<path class="st11" d="M1973.1,953.4c-1.3-5.2,1-9.3,5.8-9.3c4.8,0,9,4,10.3,9.3c1.3,5.2-1,9.3-5.8,9.3
		C1978.5,962.7,1974.4,958.7,1973.1,953.4z M1985.1,953.4c-0.8-3.3-3-5.7-5.4-5.7c-2.4,0-3.4,2.4-2.6,5.7c0.8,3.3,3,5.7,5.4,5.7
		C1985,959.1,1985.9,956.7,1985.1,953.4z"/>
	<path class="st11" d="M1999.1,948.2l-3,0.8l-1.6-3.2l4.8-1.5l2.7,0l4.4,18.1l-3.9,0L1999.1,948.2z"/>
	<path class="st11" d="M1057,995.2l-3,0.8l-1.6-3.2l4.8-1.5l2.7,0l4.4,18.1l-3.9,0L1057,995.2z"/>
	<path class="st11" d="M1071.2,1000.3c-1.3-5.2,1-9.3,5.8-9.3c4.8,0,9,4,10.3,9.3c1.3,5.2-1,9.3-5.8,9.3
		C1076.6,1009.6,1072.4,1005.6,1071.2,1000.3z M1083.2,1000.3c-0.8-3.3-3-5.7-5.4-5.7c-2.4,0-3.4,2.4-2.6,5.7c0.8,3.3,3,5.7,5.4,5.7
		C1083,1006,1084,1003.6,1083.2,1000.3z"/>
	<path class="st11" d="M1183.6,1000.1c-1.3-5.2,1-9.3,5.8-9.3c4.8,0,9,4,10.3,9.3c1.3,5.2-1,9.3-5.8,9.3
		C1189.1,1009.4,1184.9,1005.4,1183.6,1000.1z M1195.7,1000.1c-0.8-3.3-3-5.7-5.4-5.7c-2.4,0-3.4,2.4-2.6,5.7c0.8,3.3,3,5.7,5.4,5.7
		C1195.5,1005.8,1196.5,1003.4,1195.7,1000.1z"/>
	<path class="st11" d="M1207.7,1000.1c-1.3-5.2,1-9.3,5.8-9.3c4.8,0,9,4,10.3,9.3c1.3,5.2-1,9.3-5.8,9.3
		C1213.2,1009.3,1209,1005.3,1207.7,1000.1z M1219.8,1000c-0.8-3.3-3-5.7-5.4-5.7c-2.4,0-3.4,2.4-2.6,5.7c0.8,3.3,3,5.7,5.4,5.7
		C1219.6,1005.8,1220.6,1003.4,1219.8,1000z"/>
	<path class="st10" d="M1116.3,1088c-1.3-5.2,1-9.3,5.8-9.3c4.8,0,9,4,10.3,9.3c1.3,5.2-1,9.3-5.8,9.3
		C1121.7,1097.2,1117.6,1093.2,1116.3,1088z M1128.3,1087.9c-0.8-3.3-3-5.7-5.4-5.7c-2.4,0-3.4,2.4-2.6,5.7c0.8,3.3,3,5.7,5.4,5.7
		S1129.1,1091.2,1128.3,1087.9z"/>
	<path class="st10" d="M1142.2,1082.8l-3,0.8l-1.6-3.2l4.8-1.5l2.7,0l4.4,18.1l-3.9,0L1142.2,1082.8z"/>
	<path class="st11" d="M1067,1037.5l-3,0.8l-1.6-3.2l4.8-1.5l2.7,0l4.4,18.1l-3.9,0L1067,1037.5z"/>
	<path class="st11" d="M1081.2,1042.6c-1.3-5.2,1-9.3,5.8-9.3c4.8,0,9,4,10.3,9.3c1.3,5.2-1,9.3-5.8,9.3
		C1086.6,1051.9,1082.4,1047.9,1081.2,1042.6z M1093.2,1042.6c-0.8-3.3-3-5.7-5.4-5.7c-2.4,0-3.4,2.4-2.6,5.7c0.8,3.3,3,5.7,5.4,5.7
		S1094,1045.9,1093.2,1042.6z"/>
	<path class="st11" d="M1105.3,1042.6c-1.3-5.2,1-9.3,5.8-9.3c4.8,0,9,4,10.3,9.3c1.3,5.2-1,9.3-5.8,9.3
		C1110.7,1051.8,1106.6,1047.8,1105.3,1042.6z M1117.3,1042.5c-0.8-3.3-3-5.7-5.4-5.7c-2.4,0-3.4,2.4-2.6,5.7c0.8,3.3,3,5.7,5.4,5.7
		S1118.1,1045.8,1117.3,1042.5z"/>
	<path class="st11" d="M1131.3,1037.4l-3,0.8l-1.6-3.2l4.8-1.5l2.7,0l4.4,18.1l-3.9,0L1131.3,1037.4z"/>
	<path class="st11" d="M1145.4,1042.5c-1.3-5.2,1-9.3,5.8-9.3c4.8,0,9,4,10.3,9.3c1.3,5.2-1,9.3-5.8,9.3
		C1150.8,1051.8,1146.7,1047.7,1145.4,1042.5z M1157.4,1042.5c-0.8-3.3-3-5.7-5.4-5.7c-2.4,0-3.4,2.4-2.6,5.7c0.8,3.3,3,5.7,5.4,5.7
		C1157.3,1048.2,1158.2,1045.8,1157.4,1042.5z"/>
	<path class="st11" d="M1169.5,1042.4c-1.3-5.2,1-9.3,5.8-9.3c4.8,0,9,4,10.3,9.3c1.3,5.2-1,9.3-5.8,9.3
		C1175,1051.7,1170.8,1047.7,1169.5,1042.4z M1181.5,1042.4c-0.8-3.3-3-5.7-5.4-5.7c-2.4,0-3.4,2.4-2.6,5.7c0.8,3.3,3,5.7,5.4,5.7
		C1181.4,1048.1,1182.3,1045.7,1181.5,1042.4z"/>
	<path class="st11" d="M1193.6,1042.4c-1.3-5.2,1-9.3,5.8-9.3c4.8,0,9,4,10.3,9.3c1.3,5.2-1,9.3-5.8,9.3
		C1199.1,1051.7,1194.9,1047.7,1193.6,1042.4z M1205.7,1042.4c-0.8-3.3-3-5.7-5.4-5.7c-2.4,0-3.4,2.4-2.6,5.7c0.8,3.3,3,5.7,5.4,5.7
		C1205.5,1048.1,1206.5,1045.7,1205.7,1042.4z"/>
	<path class="st11" d="M1217.7,1042.4c-1.3-5.2,1-9.3,5.8-9.3c4.8,0,9,4,10.3,9.3c1.3,5.2-1,9.3-5.8,9.3
		C1223.2,1051.6,1219,1047.6,1217.7,1042.4z M1229.8,1042.3c-0.8-3.3-3-5.7-5.4-5.7c-2.4,0-3.4,2.4-2.6,5.7c0.8,3.3,3,5.7,5.4,5.7
		C1229.6,1048.1,1230.6,1045.7,1229.8,1042.3z"/>
	<path class="st11" d="M1241.9,1042.3c-1.3-5.2,1-9.3,5.8-9.3c4.8,0,9,4,10.3,9.3c1.3,5.2-1,9.3-5.8,9.3
		C1247.3,1051.6,1243.1,1047.6,1241.9,1042.3z M1253.9,1042.3c-0.8-3.3-3-5.7-5.4-5.7c-2.4,0-3.4,2.4-2.6,5.7c0.8,3.3,3,5.7,5.4,5.7
		C1253.7,1048,1254.7,1045.6,1253.9,1042.3z"/>
	<path class="st11" d="M1266,1042.3c-1.3-5.2,1-9.3,5.8-9.3c4.8,0,9,4,10.3,9.3c1.3,5.2-1,9.3-5.8,9.3
		C1271.4,1051.6,1267.2,1047.5,1266,1042.3z M1278,1042.3c-0.8-3.3-3-5.7-5.4-5.7c-2.4,0-3.4,2.4-2.6,5.7c0.8,3.3,3,5.7,5.4,5.7
		S1278.8,1045.6,1278,1042.3z"/>
	<path class="st11" d="M1291.9,1037.1l-3,0.8l-1.6-3.2l4.8-1.5l2.7,0l4.4,18.1l-3.9,0L1291.9,1037.1z"/>
	<path class="st11" d="M1308.1,1037.1l-3,0.8l-1.6-3.2l4.8-1.5l2.7,0l4.4,18.1l-3.9,0L1308.1,1037.1z"/>
	<path class="st11" d="M1322.2,1042.2c-1.3-5.2,1-9.3,5.8-9.3c4.8,0,9,4,10.3,9.3c1.3,5.2-1,9.3-5.8,9.3
		C1327.7,1051.5,1323.5,1047.4,1322.2,1042.2z M1334.3,1042.2c-0.8-3.3-3-5.7-5.4-5.7c-2.4,0-3.4,2.4-2.6,5.7c0.8,3.3,3,5.7,5.4,5.7
		C1334.1,1047.9,1335.1,1045.5,1334.3,1042.2z"/>
	<path class="st11" d="M1078,1082.9l-3,0.8l-1.6-3.2l4.8-1.5l2.7,0l4.4,18.1l-3.9,0L1078,1082.9z"/>
	<path class="st11" d="M1092.2,1088c-1.3-5.2,1-9.3,5.8-9.3c4.8,0,9,4,10.3,9.3c1.3,5.2-1,9.3-5.8,9.3
		C1097.6,1097.3,1093.4,1093.3,1092.2,1088z M1104.2,1088c-0.8-3.3-3-5.7-5.4-5.7c-2.4,0-3.4,2.4-2.6,5.7c0.8,3.3,3,5.7,5.4,5.7
		S1105,1091.3,1104.2,1088z"/>
	<path class="st11" d="M1156.4,1087.9c-1.3-5.2,1-9.3,5.8-9.3c4.8,0,9,4,10.3,9.3c1.3,5.2-1,9.3-5.8,9.3
		C1161.8,1097.2,1157.7,1093.1,1156.4,1087.9z M1168.4,1087.9c-0.8-3.3-3-5.7-5.4-5.7c-2.4,0-3.4,2.4-2.6,5.7c0.8,3.3,3,5.7,5.4,5.7
		C1168.3,1093.6,1169.2,1091.2,1168.4,1087.9z"/>
	<path class="st11" d="M1180.5,1087.8c-1.3-5.2,1-9.3,5.8-9.3c4.8,0,9,4,10.3,9.3c1.3,5.2-1,9.3-5.8,9.3
		C1185.9,1097.1,1181.8,1093.1,1180.5,1087.8z M1192.5,1087.8c-0.8-3.3-3-5.7-5.4-5.7c-2.4,0-3.4,2.4-2.6,5.7c0.8,3.3,3,5.7,5.4,5.7
		C1192.4,1093.5,1193.3,1091.1,1192.5,1087.8z"/>
	<path class="st11" d="M1137.6,1188.6c-1.3-5.2,1-9.3,5.8-9.3c4.8,0,9,4,10.3,9.3c1.3,5.2-1,9.3-5.8,9.3
		C1143,1197.9,1138.9,1193.9,1137.6,1188.6z M1149.6,1188.6c-0.8-3.3-3-5.7-5.4-5.7c-2.4,0-3.4,2.4-2.6,5.7c0.8,3.3,3,5.7,5.4,5.7
		C1149.5,1194.3,1150.4,1191.9,1149.6,1188.6z"/>
	<path class="st11" d="M1163.6,1183.5l-3,0.8l-1.6-3.2l4.8-1.5l2.7,0l4.4,18.1l-3.9,0L1163.6,1183.5z"/>
	<path class="st11" d="M1099.3,1183.6l-3,0.8l-1.6-3.2l4.8-1.5l2.7,0l4.4,18.1l-3.9,0L1099.3,1183.6z"/>
	<path class="st11" d="M1113.5,1188.7c-1.3-5.2,1-9.3,5.8-9.3c4.8,0,9,4,10.3,9.3c1.3,5.2-1,9.3-5.8,9.3
		C1118.9,1197.9,1114.8,1193.9,1113.5,1188.7z M1125.5,1188.6c-0.8-3.3-3-5.7-5.4-5.7c-2.4,0-3.4,2.4-2.6,5.7c0.8,3.3,3,5.7,5.4,5.7
		C1125.4,1194.4,1126.3,1191.9,1125.5,1188.6z"/>
	<path class="st10" d="M1177.7,1188.6c-1.3-5.2,1-9.3,5.8-9.3c4.8,0,9,4,10.3,9.3c1.3,5.2-1,9.3-5.8,9.3
		C1183.2,1197.8,1179,1193.8,1177.7,1188.6z M1189.7,1188.5c-0.8-3.3-3-5.7-5.4-5.7c-2.4,0-3.4,2.4-2.6,5.7c0.8,3.3,3,5.7,5.4,5.7
		C1189.6,1194.3,1190.6,1191.8,1189.7,1188.5z"/>
	<path class="st10" d="M1201.8,1188.5c-1.3-5.2,1-9.3,5.8-9.3c4.8,0,9,4,10.3,9.3c1.3,5.2-1,9.3-5.8,9.3
		C1207.3,1197.8,1203.1,1193.8,1201.8,1188.5z M1213.9,1188.5c-0.8-3.3-3-5.7-5.4-5.7c-2.4,0-3.4,2.4-2.6,5.7c0.8,3.3,3,5.7,5.4,5.7
		S1214.7,1191.8,1213.9,1188.5z"/>
	<path class="st11" d="M1107.8,1221c-1.3-5.2,1-9.3,5.8-9.3c4.8,0,9,4,10.3,9.3c1.3,5.2-1,9.3-5.8,9.3
		C1113.2,1230.3,1109.1,1226.3,1107.8,1221z M1119.8,1221c-0.8-3.3-3-5.7-5.4-5.7c-2.4,0-3.4,2.4-2.6,5.7c0.8,3.3,3,5.7,5.4,5.7
		C1119.7,1226.7,1120.6,1224.3,1119.8,1221z"/>
	<path class="st11" d="M1133.8,1215.8l-3,0.8l-1.6-3.2l4.8-1.5l2.7,0l4.4,18.1l-3.9,0L1133.8,1215.8z"/>
	<path class="st11" d="M1147.9,1220.9c-1.3-5.2,1-9.3,5.8-9.3c4.8,0,9,4,10.3,9.3c1.3,5.2-1,9.3-5.8,9.3
		C1153.4,1230.2,1149.2,1226.2,1147.9,1220.9z M1160,1220.9c-0.8-3.3-3-5.7-5.4-5.7c-2.4,0-3.4,2.4-2.6,5.7c0.8,3.3,3,5.7,5.4,5.7
		C1159.8,1226.6,1160.8,1224.2,1160,1220.9z"/>
	<path class="st11" d="M1172,1220.9c-1.3-5.2,1-9.3,5.8-9.3c4.8,0,9,4,10.3,9.3c1.3,5.2-1,9.3-5.8,9.3
		C1177.5,1230.2,1173.3,1226.1,1172,1220.9z M1184.1,1220.9c-0.8-3.3-3-5.7-5.4-5.7c-2.4,0-3.4,2.4-2.6,5.7c0.8,3.3,3,5.7,5.4,5.7
		S1184.9,1224.2,1184.1,1220.9z"/>
	<path class="st11" d="M1204.6,1087.8c-1.3-5.2,1-9.3,5.8-9.3c4.8,0,9,4,10.3,9.3c1.3,5.2-1,9.3-5.8,9.3
		C1210.1,1097.1,1205.9,1093.1,1204.6,1087.8z M1216.7,1087.8c-0.8-3.3-3-5.7-5.4-5.7c-2.4,0-3.4,2.4-2.6,5.7c0.8,3.3,3,5.7,5.4,5.7
		C1216.5,1093.5,1217.5,1091.1,1216.7,1087.8z"/>
	<path class="st11" d="M1228.7,1087.8c-1.3-5.2,1-9.3,5.8-9.3c4.8,0,9,4,10.3,9.3c1.3,5.2-1,9.3-5.8,9.3
		C1234.2,1097,1230,1093,1228.7,1087.8z M1240.8,1087.7c-0.8-3.3-3-5.7-5.4-5.7c-2.4,0-3.4,2.4-2.6,5.7c0.8,3.3,3,5.7,5.4,5.7
		C1240.6,1093.5,1241.6,1091.1,1240.8,1087.7z"/>
	<path class="st10" d="M1168.2,1305.7c-1.3-5.2,1-9.3,5.8-9.3c4.8,0,9,4,10.3,9.3c1.3,5.2-1,9.3-5.8,9.3
		C1173.7,1315,1169.5,1311,1168.2,1305.7z M1180.3,1305.7c-0.8-3.3-3-5.7-5.4-5.7c-2.4,0-3.4,2.4-2.6,5.7c0.8,3.3,3,5.7,5.4,5.7
		S1181.1,1309,1180.3,1305.7z"/>
	<path class="st10" d="M1194.2,1300.6l-3,0.8l-1.6-3.2l4.8-1.5l2.7,0l4.4,18.1l-3.9,0L1194.2,1300.6z"/>
	<path class="st11" d="M1119,1255.3l-3,0.8l-1.6-3.2l4.8-1.5l2.7,0l4.4,18.1l-3.9,0L1119,1255.3z"/>
	<path class="st11" d="M1133.1,1260.4c-1.3-5.2,1-9.3,5.8-9.3c4.8,0,9,4,10.3,9.3c1.3,5.2-1,9.3-5.8,9.3
		C1138.6,1269.7,1134.4,1265.6,1133.1,1260.4z M1145.2,1260.4c-0.8-3.3-3-5.7-5.4-5.7c-2.4,0-3.4,2.4-2.6,5.7c0.8,3.3,3,5.7,5.4,5.7
		C1145,1266.1,1146,1263.7,1145.2,1260.4z"/>
	<path class="st11" d="M1157.2,1260.3c-1.3-5.2,1-9.3,5.8-9.3c4.8,0,9,4,10.3,9.3c1.3,5.2-1,9.3-5.8,9.3
		C1162.7,1269.6,1158.5,1265.6,1157.2,1260.3z M1169.3,1260.3c-0.8-3.3-3-5.7-5.4-5.7c-2.4,0-3.4,2.4-2.6,5.7c0.8,3.3,3,5.7,5.4,5.7
		C1169.1,1266.1,1170.1,1263.6,1169.3,1260.3z"/>
	<path class="st11" d="M1183.2,1255.2l-3,0.8l-1.6-3.2l4.8-1.5l2.7,0l4.4,18.1l-3.9,0L1183.2,1255.2z"/>
	<path class="st11" d="M1130,1300.7l-3,0.8l-1.6-3.2l4.8-1.5l2.7,0l4.4,18.1l-3.9,0L1130,1300.7z"/>
	<path class="st11" d="M1144.1,1305.8c-1.3-5.2,1-9.3,5.8-9.3c4.8,0,9,4,10.3,9.3c1.3,5.2-1,9.3-5.8,9.3
		C1149.6,1315.1,1145.4,1311,1144.1,1305.8z M1156.1,1305.8c-0.8-3.3-3-5.7-5.4-5.7s-3.4,2.4-2.6,5.7c0.8,3.3,3,5.7,5.4,5.7
		C1156,1311.5,1156.9,1309.1,1156.1,1305.8z"/>
	<path class="st11" d="M1208.3,1305.7c-1.3-5.2,1-9.3,5.8-9.3c4.8,0,9,4,10.3,9.3c1.3,5.2-1,9.3-5.8,9.3
		C1213.8,1315,1209.6,1310.9,1208.3,1305.7z M1220.4,1305.7c-0.8-3.3-3-5.7-5.4-5.7c-2.4,0-3.4,2.4-2.6,5.7c0.8,3.3,3,5.7,5.4,5.7
		C1220.2,1311.4,1221.2,1309,1220.4,1305.7z"/>
	<path class="st11" d="M1232.5,1305.6c-1.3-5.2,1-9.3,5.8-9.3c4.8,0,9,4,10.3,9.3c1.3,5.2-1,9.3-5.8,9.3
		C1237.9,1314.9,1233.7,1310.9,1232.5,1305.6z M1244.5,1305.6c-0.8-3.3-3-5.7-5.4-5.7c-2.4,0-3.4,2.4-2.6,5.7c0.8,3.3,3,5.7,5.4,5.7
		S1245.3,1308.9,1244.5,1305.6z"/>
	<path class="st10" d="M1177.5,1337.8c-1.3-5.2,1-9.3,5.8-9.3c4.8,0,9,4,10.3,9.3c1.3,5.2-1,9.3-5.8,9.3
		C1183,1347.1,1178.8,1343.1,1177.5,1337.8z M1189.6,1337.8c-0.8-3.3-3-5.7-5.4-5.7c-2.4,0-3.4,2.4-2.6,5.7c0.8,3.3,3,5.7,5.4,5.7
		C1189.4,1343.5,1190.4,1341.1,1189.6,1337.8z"/>
	<path class="st10" d="M1203.5,1332.7l-3,0.8l-1.6-3.2l4.8-1.5l2.7,0l4.4,18.1l-3.9,0L1203.5,1332.7z"/>
	<path class="st11" d="M1153.4,1337.8c-1.3-5.2,1-9.3,5.8-9.3c4.8,0,9,4,10.3,9.3c1.3,5.2-1,9.3-5.8,9.3
		C1158.9,1347.1,1154.7,1343.1,1153.4,1337.8z M1165.4,1337.8c-0.8-3.3-3-5.7-5.4-5.7c-2.4,0-3.4,2.4-2.6,5.7c0.8,3.3,3,5.7,5.4,5.7
		S1166.2,1341.1,1165.4,1337.8z"/>
	<path class="st11" d="M1217.6,1337.7c-1.3-5.2,1-9.3,5.8-9.3c4.8,0,9,4,10.3,9.3c1.3,5.2-1,9.3-5.8,9.3S1218.9,1343,1217.6,1337.7z
		 M1229.7,1337.7c-0.8-3.3-3-5.7-5.4-5.7c-2.4,0-3.4,2.4-2.6,5.7c0.8,3.3,3,5.7,5.4,5.7C1229.5,1343.4,1230.5,1341,1229.7,1337.7z"
		/>
	<path class="st11" d="M1241.8,1337.7c-1.3-5.2,1-9.3,5.8-9.3c4.8,0,9,4,10.3,9.3c1.3,5.2-1,9.3-5.8,9.3
		C1247.2,1347,1243,1343,1241.8,1337.7z M1253.8,1337.7c-0.8-3.3-3-5.7-5.4-5.7c-2.4,0-3.4,2.4-2.6,5.7c0.8,3.3,3,5.7,5.4,5.7
		S1254.6,1341,1253.8,1337.7z"/>
	<path class="st11" d="M1256.6,1305.6c-1.3-5.2,1-9.3,5.8-9.3c4.8,0,9,4,10.3,9.3c1.3,5.2-1,9.3-5.8,9.3
		C1262,1314.9,1257.8,1310.9,1256.6,1305.6z M1268.6,1305.6c-0.8-3.3-3-5.7-5.4-5.7c-2.4,0-3.4,2.4-2.6,5.7c0.8,3.3,3,5.7,5.4,5.7
		C1268.5,1311.3,1269.4,1308.9,1268.6,1305.6z"/>
	<path class="st11" d="M1280.7,1305.6c-1.3-5.2,1-9.3,5.8-9.3c4.8,0,9,4,10.3,9.3c1.3,5.2-1,9.3-5.8,9.3
		C1286.1,1314.8,1282,1310.8,1280.7,1305.6z M1292.7,1305.5c-0.8-3.3-3-5.7-5.4-5.7c-2.4,0-3.4,2.4-2.6,5.7c0.8,3.3,3,5.7,5.4,5.7
		C1292.6,1311.3,1293.5,1308.8,1292.7,1305.5z"/>
	<path class="st11" d="M1921.7,993.8l-3,0.8l-1.6-3.2l4.8-1.5l2.7,0l4.4,18.1l-3.9,0L1921.7,993.8z"/>
	<path class="st11" d="M1935.8,998.9c-1.3-5.2,1-9.3,5.8-9.3c4.8,0,9,4,10.3,9.3c1.3,5.2-1,9.3-5.8,9.3S1937.1,1004.1,1935.8,998.9z
		 M1947.9,998.9c-0.8-3.3-3-5.7-5.4-5.7s-3.4,2.4-2.6,5.7c0.8,3.3,3,5.7,5.4,5.7C1947.7,1004.6,1948.7,1002.2,1947.9,998.9z"/>
	<path class="st11" d="M1960,998.8c-1.3-5.2,1-9.3,5.8-9.3c4.8,0,9,4,10.3,9.3c1.3,5.2-1,9.3-5.8,9.3
		C1965.4,1008.1,1961.2,1004.1,1960,998.8z M1972,998.8c-0.8-3.3-3-5.7-5.4-5.7c-2.4,0-3.4,2.4-2.6,5.7c0.8,3.3,3,5.7,5.4,5.7
		C1971.9,1004.5,1972.8,1002.1,1972,998.8z"/>
	<path class="st11" d="M1984.1,998.8c-1.3-5.2,1-9.3,5.8-9.3c4.8,0,9,4,10.3,9.3c1.3,5.2-1,9.3-5.8,9.3
		C1989.5,1008.1,1985.4,1004.1,1984.1,998.8z M1996.1,998.8c-0.8-3.3-3-5.7-5.4-5.7c-2.4,0-3.4,2.4-2.6,5.7c0.8,3.3,3,5.7,5.4,5.7
		C1996,1004.5,1996.9,1002.1,1996.1,998.8z"/>
	<path class="st11" d="M2010,993.6l-3,0.8l-1.6-3.2l4.8-1.5l2.7,0l4.4,18.1l-3.9,0L2010,993.6z"/>
	<path class="st11" d="M1895.7,1042.2c-1.3-5.2,1-9.3,5.8-9.3c4.8,0,9,4,10.3,9.3c1.3,5.2-1,9.3-5.8,9.3
		C1901.2,1051.5,1897,1047.5,1895.7,1042.2z M1907.8,1042.2c-0.8-3.3-3-5.7-5.4-5.7s-3.4,2.4-2.6,5.7c0.8,3.3,3,5.7,5.4,5.7
		C1907.6,1047.9,1908.6,1045.5,1907.8,1042.2z"/>
	<path class="st11" d="M1921.7,1037.1l-3,0.8l-1.6-3.2l4.8-1.5l2.7,0l4.4,18.1l-3.9,0L1921.7,1037.1z"/>
	<path class="st10" d="M1935.8,1042.2c-1.3-5.2,1-9.3,5.8-9.3c4.8,0,9,4,10.3,9.3c1.3,5.2-1,9.3-5.8,9.3
		C1941.3,1051.5,1937.1,1047.4,1935.8,1042.2z M1947.9,1042.2c-0.8-3.3-3-5.7-5.4-5.7c-2.4,0-3.4,2.4-2.6,5.7c0.8,3.3,3,5.7,5.4,5.7
		C1947.7,1047.9,1948.7,1045.5,1947.9,1042.2z"/>
	<path class="st10" d="M1960,1042.1c-1.3-5.2,1-9.3,5.8-9.3c4.8,0,9,4,10.3,9.3c1.3,5.2-1,9.3-5.8,9.3
		C1965.4,1051.4,1961.2,1047.4,1960,1042.1z M1972,1042.1c-0.8-3.3-3-5.7-5.4-5.7c-2.4,0-3.4,2.4-2.6,5.7c0.8,3.3,3,5.7,5.4,5.7
		C1971.9,1047.8,1972.8,1045.4,1972,1042.1z"/>
	<path class="st10" d="M1984.1,1042.1c-1.3-5.2,1-9.3,5.8-9.3c4.8,0,9,4,10.3,9.3c1.3,5.2-1,9.3-5.8,9.3
		C1989.5,1051.4,1985.4,1047.4,1984.1,1042.1z M1996.1,1042.1c-0.8-3.3-3-5.7-5.4-5.7c-2.4,0-3.4,2.4-2.6,5.7c0.8,3.3,3,5.7,5.4,5.7
		S1996.9,1045.4,1996.1,1042.1z"/>
	<path class="st10" d="M2010,1036.9l-3,0.8l-1.6-3.2l4.8-1.5l2.7,0l4.4,18.1l-3.9,0L2010,1036.9z"/>
	<path class="st11" d="M2005.1,1287.1l-3,0.8l-1.6-3.2l4.8-1.5l2.7,0l4.4,18.1l-3.9,0L2005.1,1287.1z"/>
	<path class="st11" d="M2019.3,1292.2c-1.3-5.2,1-9.3,5.8-9.3c4.8,0,9,4,10.3,9.3c1.3,5.2-1,9.3-5.8,9.3
		C2024.7,1301.5,2020.6,1297.5,2019.3,1292.2z M2031.3,1292.2c-0.8-3.3-3-5.7-5.4-5.7c-2.4,0-3.4,2.4-2.6,5.7c0.8,3.3,3,5.7,5.4,5.7
		S2032.1,1295.5,2031.3,1292.2z"/>
	<path class="st11" d="M2043.4,1292.2c-1.3-5.2,1-9.3,5.8-9.3c4.8,0,9,4,10.3,9.3c1.3,5.2-1,9.3-5.8,9.3
		C2048.8,1301.4,2044.7,1297.4,2043.4,1292.2z M2055.4,1292.1c-0.8-3.3-3-5.7-5.4-5.7s-3.4,2.4-2.6,5.7c0.8,3.3,3,5.7,5.4,5.7
		C2055.3,1297.9,2056.2,1295.5,2055.4,1292.1z"/>
	<path class="st11" d="M1981.5,1316.6l-3,0.8l-1.6-3.2l4.8-1.5l2.7,0l4.4,18.1l-3.9,0L1981.5,1316.6z"/>
	<path class="st11" d="M1995.6,1321.6c-1.3-5.2,1-9.3,5.8-9.3c4.8,0,9,4,10.3,9.3c1.3,5.2-1,9.3-5.8,9.3
		C2001,1330.9,1996.9,1326.9,1995.6,1321.6z M2007.6,1321.6c-0.8-3.3-3-5.7-5.4-5.7c-2.4,0-3.4,2.4-2.6,5.7c0.8,3.3,3,5.7,5.4,5.7
		C2007.5,1327.3,2008.4,1324.9,2007.6,1321.6z"/>
	<path class="st11" d="M2019.7,1321.6c-1.3-5.2,1-9.3,5.8-9.3c4.8,0,9,4,10.3,9.3c1.3,5.2-1,9.3-5.8,9.3
		C2025.2,1330.9,2021,1326.9,2019.7,1321.6z M2031.7,1321.6c-0.8-3.3-3-5.7-5.4-5.7s-3.4,2.4-2.6,5.7c0.8,3.3,3,5.7,5.4,5.7
		C2031.6,1327.3,2032.5,1324.9,2031.7,1321.6z"/>
	<path class="st11" d="M2067.5,1292.1c-1.3-5.2,1-9.3,5.8-9.3c4.8,0,9,4,10.3,9.3c1.3,5.2-1,9.3-5.8,9.3
		C2073,1301.4,2068.8,1297.4,2067.5,1292.1z M2079.6,1292.1c-0.8-3.3-3-5.7-5.4-5.7s-3.4,2.4-2.6,5.7c0.8,3.3,3,5.7,5.4,5.7
		S2080.4,1295.4,2079.6,1292.1z"/>
	<path class="st11" d="M2093.5,1287l-3,0.8l-1.6-3.2l4.8-1.5l2.7,0l4.4,18.1l-3.9,0L2093.5,1287z"/>
	<g>
		<g>
			<g>
				<g>
					<polygon class="st12" points="1358.8,1030.2 1512.2,1097.3 1512.2,1037.6 1432.3,1004.7 1512.2,971.9 1512.2,912.7 
						1358.8,979.8 					"/>
					<polygon class="st12" points="1653.1,871.3 1520.6,1148.2 1576.6,1148.2 1709.1,871.3 					"/>
				</g>
				<polygon class="st12" points="1719.4,912.7 1719.4,972.4 1799.3,1005.3 1719.4,1038.1 1719.4,1097.3 1872.7,1030.2 
					1872.7,979.8 				"/>
			</g>
		</g>
		<rect x="1520.6" y="1132.4" class="st12" width="56" height="15.8"/>
		<rect x="1683" y="855.5" class="st12" width="26.2" height="15.8"/>
	</g>
	<g>
		<g>
			<g>
				<polygon class="st13" points="1358.8,1014.3 1512.2,1081.5 1512.2,1021.7 1432.3,988.9 1512.2,956 1512.2,896.8 1358.8,964 				
					"/>
				<polygon class="st13" points="1653.1,855.5 1520.6,1132.4 1576.6,1132.4 1709.1,855.5 				"/>
			</g>
			<polygon class="st13" points="1719.4,896.8 1719.4,956.6 1799.3,989.5 1719.4,1022.3 1719.4,1081.5 1872.7,1014.3 1872.7,964 			
				"/>
		</g>
	</g>
	<polygon class="st3" points="2218.8,1455 2209.4,1455 2133,1163.4 2034.7,788.5 937.5,788.5 1103.7,1455 1091.8,1455.1 
		923.6,779.4 2042.5,778.5 2043.4,782.2 2141.7,1159.1 	"/>
	<polygon class="st5" points="2220.5,1461.5 2211.4,1462.7 2133,1163.4 2141.7,1159.1 	"/>
	<path class="st14" d="M1094.3,945.5c-2,2.3-2.3,5-1.3,7.8c0,0,0,0,0,0c1.9,5.2,8.1,11,15.3,16.7c0.9,0.7,1.7,1.4,2.5,2
		c0.2,0.2,0.4,0.3,0.5,0.5c0.1,0.1,0.3,0.3,0.4,0.4c6.7,6.2,4.2,7.6,16.2,20.2c13.7,14.3,23.2,14.6,25.9,13.3
		c2.3-1.1-2.4-8.7-7.5-17.2c-0.2-0.4-0.5-0.8-0.7-1.2c-0.7-1.1-1.4-2.3-2-3.4c-6-10.3-4.5-15.1-3-30.3c1.2-12.4,19.3-69.3,19.3-69.3
		l-26.3-4.5c0,0-7.9,45.3-16.7,52.3c-4.7,3.7-9.9,3.8-14.4,6.5c-0.3,0.2-0.6,0.4-0.9,0.6C1098.9,941.4,1096.3,943.2,1094.3,945.5z"
		/>
	<path class="st3" d="M1094.3,945.5c-2,2.3-2.3,5-1.3,7.8c0,0,0,0,0,0c2.3,5.2,8.3,10.9,15.3,16.7c0.9,0.8,1.7,1.4,2.4,2.1
		c0.2,0.2,0.4,0.3,0.5,0.5c0.1,0.1,0.3,0.3,0.4,0.4c6.7,6.2,4.2,7.6,16.2,20.2c13.7,14.3,23.2,14.6,25.9,13.3
		c2.3-1.1-2.4-8.7-7.5-17.2c-2.7-1-15.1-6-24.5-18.1c-8.3-10.6-13.8-24.1-19.4-32c-0.3,0.2-0.6,0.4-0.9,0.6
		C1098.9,941.4,1096.3,943.2,1094.3,945.5z"/>
	<path class="st14" d="M1288.6,928.6c1.6,8.1,13.2,6.8,26.2,3.6c13-3.2,9.9,0.6,28.3-1.4c18.4-2,24-8.9,24.6-11.7
		c0.5-2.4-8.6-3.3-18.4-4.4c-1.2-0.1-2.5-0.3-3.7-0.4c-11-1.4-19.1-8.5-29.1-14.3c-9.5-5.5-23.6-28.1-23.6-28.1l-25.3,2
		c0,0,13.3,20.1,18.4,28.9c3,5.2,2.9,12,2.5,17.2C1288.2,922.8,1288,925.8,1288.6,928.6z"/>
	<path class="st3" d="M1315.6,932.7c13.4-3,10.4,1.1,29.6-0.4c19.2-1.5,24.8-9.1,25.2-12.2c0.4-2.7-9.2-4.1-19.4-5.8l-0.1,0.2
		c0,0-11.2,8.4-27.3,8.2c-13.1-0.2-27.1-4.8-36.2-5c-0.1,3.2-0.1,6.6,0.6,9.8C1290,936.8,1302.1,935.8,1315.6,932.7z"/>
	<path class="st12" d="M1209.9,767.4l-23.6,63.6l-30.8,83c0,0-8.4,0.8-16.4-1.5c-7.4-2.1-15.8-7.7-15.8-7.7s8.6-89.1,24.5-140.3
		c4.1-13.1,8.7-23.8,13.7-29.7C1186.2,705.5,1209.9,767.4,1209.9,767.4z"/>
	<path class="st13" d="M1175.5,686.4c-13.3-4.3-51.3,1.2-89.4,8.7l-8-13.1l-82.4-6.4c0,0-27.2,60.1-12.3,98.4
		c2.2,5.6,6.5,9.2,13.9,9.4c0,0,1.2,0,1.2,0c0,0,49,0,65,0c41,0,86.7-28.1,92.6-29.3c9.7-1.9,13.6,17.4,23.2,37.6
		c9.7,20.3,91,89.8,91,89.8s12.5,0.1,17.7-1.8c5.6-2.1,7.6-4.8,7.6-4.8S1205.5,696.1,1175.5,686.4z"/>
	<path class="st13" d="M1186.2,831l-30.8,83c0,0-8.4,0.8-16.4-1.5c-7.4-2.1-15.8-7.7-15.8-7.7s8.6-89.1,24.5-140.3L1186.2,831z"/>
	<path class="st14" d="M1062.3,531.1c1,3.4-15,9.6-27.2,7.3c-11.4-2.1-24.3-15.5-21.6-16.8c4.4-2.1,7.3-7.3,4.9-35.3l2.2,0.2
		l36.6,4.2c0,0,0.1,11.4,1,22.1C1058.9,521.8,1060.7,525.6,1062.3,531.1z"/>
	<path class="st15" d="M1057.3,490.7c0,0,0.1,11.4,1,22.1c-20.2,1.1-32.4-16.4-37.6-26.3L1057.3,490.7z"/>
	<path class="st14" d="M1064.8,500.3c0,0-47.7,4.7-50.1-25c-2.5-29.7-10.3-49.1,20-53.4c30.3-4.3,37.2,6.6,40.4,16.3
		C1078.4,447.9,1077.2,498.3,1064.8,500.3z"/>
	<path class="st2" d="M976.5,628.7c0.8,3.6,1.6,6.9,2.2,10c1,4.9,1.6,9.2,2.1,13c1.5,11.7,1,18.7,2,26.3c0.5,4.2,1.5,8.7,3.6,14.3
		c2,5.4,53.8,10.3,83.2,8.3c9.4-0.6,16.5-1.9,19-4.1c10.5-9.1,9.5,11,10.9-85.1c0.7-46.9-39.8-88.6-39.8-88.6s-3.2,20-43.4-3.8
		c-1.4-0.8-17.2,22.6-32.4,51.4C967.2,602.2,971.7,608.9,976.5,628.7z"/>
	<path class="st2" d="M1059.7,522.7c0,0,41.3,7,46.1,24.8c4.8,17.8,38.3,117.2,38.3,117.2s-26,8.9-35.7-0.8
		c-9.7-9.7-33.7-90-33.7-90L1059.7,522.7z"/>
	<path class="st16" d="M1053.8,482.8c0,0,2,4.9,7.3,4.9c5.3,0,6.7-0.8,7.7-1.9c1-1.1,2-3.3,2-3.3S1062,480.7,1053.8,482.8z"/>
	<g>
		<path class="st17" d="M1172.2,534.3l-3.2-7.8c-3.4-8.4-11.5-13.9-20.6-13.9h-58.2v36.9v157.7h240.9V549.6h-136.3
			C1184.9,549.6,1175.9,543.5,1172.2,534.3z"/>
		<g>
			<path class="st16" d="M1126.6,631v-14l49.2-21.6v14.3l-34.4,14.1l34.4,14.1v14.5L1126.6,631z"/>
			<path class="st16" d="M1227,578.6h13.1l-45,94.2h-13.1L1227,578.6z"/>
			<path class="st16" d="M1294.8,617v14l-49.2,21.6v-14.3l34.4-14.1l-34.4-14.1v-14.5L1294.8,617z"/>
		</g>
	</g>
	<path class="st14" d="M1199.4,549.5c-0.3,1,5.7,10.9,14.3,9.2c5.4-1.1,12.3-12.6,6.2-15.2C1209.7,539.2,1200.2,546.9,1199.4,549.5z
		"/>
	<path class="st18" d="M1046.3,417.8c-6.1-9.6-25-2.6-26.9-1.9c-3,1.2-14.7,5.6-22.2,18.9c-7.6,13.6-2.1,20.8-11.1,41.7
		c-2.6,6.1-5.2,12.1-10.6,17.8c-5,5.3-8.8,6.7-8.4,8.7c0.5,3.2,10.8,1,26.9,3.8c11.3,2,14.4,4.4,26.9,5.7c10,1,15,1.4,17.4-1.9
		c4.5-6.2-4.5-15.7-3.2-34.1c0.7-9.3,3.1-9,7.9-28.4C1047.3,431.2,1049.4,422.6,1046.3,417.8z"/>
	<path class="st18" d="M1077.6,424.9c-7.4-9.7-13.4-7.9-16.9-5.2c-27.1-16.1-46,5.4-46,5.4c-4.4,22.3-21.4,34.4-21.4,34.4
		s9,6,30.6,1.4c6.6-1.4,12.6-5.7,17.8-11.1c-9.3,13.9-21.5,23.8-21.5,23.8c26-10.6,37.9-45.2,39-48.8c3,2.9,8.8,9.1,10.4,15
		c2.2,8,2.6,24.4,7.4,24.1C1077.1,463.9,1088.7,439.4,1077.6,424.9z"/>
	<path class="st8" d="M981.5,654.9c1.5,11.7,1,18.7,2,26.3c37.5,0.1,87.6-29,87.6-29L981.5,654.9z"/>
	<path class="st8" d="M1071.2,627.6c0,0-58.4-1.7-68.3-34.9c-10.8-36.5-22.9,15-22.9,15l6.4,32.8h64.1L1071.2,627.6z"/>
	<path class="st14" d="M1072.1,636.3l4.2-6.6c0,0,3.3-1.1,8-4.4c5.6-3.9,4.8-9.8,7.6-9.2l0,12.9l-0.3,0c12,3.2,26-0.3,26.2,2.7
		c0.8,8.2-5.6,11.9-10.9,14.5c-4.1,2-8.7,4.9-16,2.6c-5.4-1.7-13.8-3.4-13.8-3.4L1072.1,636.3z"/>
	<path class="st2" d="M1016.3,518.9c0,0-37.9,2.5-47.4,17.3c-9.5,14.8-21.2,89.9-16.3,115.6c4.9,25.8,126.3-4.9,126.3-4.9l-3.9-22.4
		c0,0-70.1,0.4-74.1-8.7C995.8,603.7,1016.3,518.9,1016.3,518.9z"/>
</g>
</svg>
