<svg xmlns="http://www.w3.org/2000/svg" viewBox="0 0 1083.34 152.21"><defs><style>.cls-1{fill:#1f6565;}</style></defs><g id="Calque_2" data-name="Calque 2"><g id="Calque_1-2" data-name="Calque 1"><path class="cls-1" d="M488,16.59c-80.84,1.44-121.26,2.17-165-1-48-3.49-64.51-7.69-141-13-56.64-3.94-91.24-4.66-129,13C35,24,9.35,36.47,2,62.59c-7.09,25.25,5.39,53.3,23,69,25.64,22.85,59.85,17.52,110,14,57.53-4.05,115.36.8,173-1,102.91-3.22,154.37-4.77,200-4,66.76,1.12,63.76,4.25,165,8,117.93,4.36,84.78-1.27,189,2,74.77,2.34,142,6.81,192-26,22.2-14.56,27.75-27.74,29-37,3.26-24.1-19.35-44.95-27-52-37.1-34.22-90.88-37.3-191-35-78.8,1.81-111.55,5.24-209,10C562.18,15.17,504.48,16.29,488,16.59Z"/></g></g></svg>