<svg xmlns="http://www.w3.org/2000/svg" viewBox="0 0 954.63 192"><defs><style>.cls-1{fill:#763839;}</style></defs><g id="Calque_2" data-name="Calque 2"><g id="Calque_1-2" data-name="Calque 1"><path class="cls-1" d="M37.77,55.81C85.42,9.58,162.3,3.13,186.74,1.07c64.43-5.4,78.86,10.78,180.19,22.54,44.93,5.22,98.05,5.63,204.3,6.44,119.43.92,143-2.68,211.39,3.22C868,40.65,940.71,46.92,952.87,76.2c11.74,28.27-38.25,65.07-68.1,81.57-79.9,44.18-181.62,34.69-231.25,30.06C553.09,178.46,543,154.45,449.21,153.48c-13.94-.14-55.64,4.2-139,12.88-93.17,9.7-133.75,15.26-194.37,11.81C60.2,175,26.16,172.69,9.4,153.48-15,125.57,12.89,80,37.77,55.81Z"/></g></g></svg>