<?xml version="1.0" encoding="utf-8"?>
<!-- Generator: Adobe Illustrator 25.0.1, SVG Export Plug-In . SVG Version: 6.00 Build 0)  -->
<svg version="1.1" id="Calque_1" xmlns="http://www.w3.org/2000/svg" xmlns:xlink="http://www.w3.org/1999/xlink" x="0px" y="0px"
	 viewBox="0 0 422.1 538.2" style="enable-background:new 0 0 422.1 538.2;" xml:space="preserve">
<style type="text/css">
	.st0{enable-background:new    ;}
	.st1{fill:#FFFFFF;}
</style>
<g class="st0">
	<path class="st1" d="M124,366.5c-43.2,0-66.1-20.8-68.8-62.3c-1-16.1-1.6-35.6-1.6-58.4c0-37.4,1.8-75.5,5.3-114.5
		c1.7-21.9,4.6-37.9,8.6-48c5.2-13,15.2-19.5,30.1-19.5c10.9,0,17.1,7.7,18.6,23.2c0.8,7.9,1.2,15.8,1.2,23.4c0,7.6-0.4,15-1.2,22.5
		c-3.6,41-5.5,72.1-5.5,93.4l0.2,47.5c0,17.3,0.9,32,2.7,43.9c1,7.6,3.4,13.7,7.1,18.5s9.8,7.1,18.3,7.1c21.2,0,39.3-3.4,54.1-10.2
		c3.1-1.4,5.4-2.1,6.8-2.1c4.3,0,7.4,2,9.4,5.9c0.8,1.6,1.2,3.1,1.2,4.7c0,4.2-1.9,7.3-5.7,9.4C185.9,361.3,158.9,366.5,124,366.5z"
		/>
</g>
<g class="st0">
	<path class="st1" d="M202,447.7c-21.5,0-32.2-37-32.2-110.9c0-33.2,1.8-73.9,5.5-122.1c1.7-21.9,4.6-37.9,8.6-48
		c5.2-13.4,15.2-20.1,30.1-20.1c10.9,0,17.2,7.9,18.8,23.8c0.7,7.4,2,11.1,4.1,11.1c1.7,0,3.9-1.4,6.6-4.3
		c20.3-22.7,43.4-34,69.3-34c13.7,0,24.7,3.1,33.2,9.2c15,11.1,22.5,30.1,22.5,57c0,31.1-12.5,58.9-37.5,83.4
		c-9.1,9-19.2,17-30.3,24c-4,2.5-6.1,4.6-6.1,6.4c0,2,2.4,3.7,7.2,5.3c13.7,4.4,24.7,10.2,33.2,17.4c15.1,12.5,22.7,26.6,22.7,42.2
		c0,19.7-7,35.1-21,46.4c-14,11.3-31.2,16.9-51.7,16.9c-20.3,0-39.2-4.6-56.6-13.7c-1.7-0.9-3.3-1.4-4.7-1.4c-2,0-3.8,1.2-5.7,3.5
		C214,445.1,208.6,447.7,202,447.7z M264.7,429.3c12,0,21.8-3.6,29.5-10.9c7.7-7.3,11.5-16.4,11.5-27.3c0-9.6-4.2-19.3-12.5-28.9
		c-4.8-5.5-11.5-10.4-19.9-14.6c-6.2-3.3-13.9-4.9-23-4.9c-9.5,0-15.8,1.5-18.8,4.4c-3.1,2.9-4.6,6.9-4.6,11.8v40.4
		C226.8,419.3,239.4,429.3,264.7,429.3z M234.4,324.3c1.8,0,4-0.5,6.6-1.4c15.2-5.2,29.1-13.7,41.6-25.4c10.5-9.9,19-21.8,25.4-35.8
		c6.4-14,9.6-29.7,9.6-47c0-29-7.7-43.6-23.2-43.6c-20.4,0-37.1,13.3-50,39.8c-7.8,16.1-12.6,32.5-14.3,49
		c-2.1,19.3-3.1,38.2-3.1,56.8c0,3,1.2,5.1,3.5,6.4C231.6,323.9,232.9,324.3,234.4,324.3z"/>
</g>
</svg>
