<svg xmlns="http://www.w3.org/2000/svg" viewBox="0 0 529.08 560.39"><defs><style>.cls-1{fill:#1f6565;}</style></defs><g id="Calque_2" data-name="Calque 2"><g id="Calque_1-2" data-name="Calque 1"><path class="cls-1" d="M256.82,20.85C161.2,56.11,127,121.47,121.61,132.37c-39.5,79.27,2.73,111.38-45.41,159.52C40,328.07,0,326.12,0,372.6,0,378.77,1.29,437,60.92,490.52c75.82,68.12,180.38,69.84,190.35,69.87,51.07.17,74.56-22.34,119.46-67.35,27.5-27.57,25.66-34.22,75.31-101.62C498,320.9,506.05,320,515.94,290c12-36.28,24.71-78.1-5.74-143.37-8.43-18.07-44.93-96.29-109.6-131.1C348-12.8,305.38,2.94,256.82,20.85Z"/></g></g></svg>