<svg xmlns="http://www.w3.org/2000/svg" viewBox="0 0 1065.46 948.41"><defs><style>.cls-1{opacity:0.95;}.cls-2{fill:#fff;}</style></defs><g id="Calque_2" data-name="Calque 2"><g id="Calque_1-2" data-name="Calque 1"><g class="cls-1"><path class="cls-2" d="M73,838.38l-1.78.34c-2.07.54-4.15,1.1-6.2,1.8-3.34,1.76-8.62,4-15,7.78l-1.2.71-1.18.81-2.44,1.67c-.83.58-1.71,1.14-2.54,1.77l-2.48,2-2.58,2.1c-.84.74-1.64,1.54-2.48,2.32l-2.54,2.43c-.84.84-1.61,1.73-2.44,2.62.14.12.55-.08.39.35a6.6,6.6,0,0,1-.78,1.22l-.91,1.18c-.39.46-.82,1-1.3,1.7l-3.21,4c-1,1.2-1.7,2.34-2.43,3.33L20,879.21c-.56.81-1,1.55-1.4,2.2a47.7,47.7,0,0,0-3,5.15c-1.06,2.36-1.71,3.82-5.92,13.27.64-1.43,1.45-2.92,2.19-4.43s1.49-3,2.3-4.39a54.38,54.38,0,0,1,4-6.45c-.89,1.43-1.67,2.89-2.45,4.34s-1.61,2.91-2.34,4.38c-1.45,3-2.95,5.88-4.25,8.85C6.37,908.05,4,914,1.68,920c2.6-4.67,5-8.36,3.07-2.21,1.39-1.54,1.24.77.8,4.07-.21,1.65-.52,3.55-.8,5.34s-.47,3.48-.53,4.71c2.49-6.28,4.67-11.2,5.8-13.46.21,1-2,7.11-4.57,14.57a18.7,18.7,0,0,0,1.26-2.14A18.7,18.7,0,0,1,5.45,933C3.72,937.9,1.78,943.37,0,948.41c1.16-2.77,2.32-5.55,2.09-4.06,2.49-7.07,5-14.14,7.77-21.14.39-.63.23.09-.16,1.4.58-1.86,1.2-3.71,1.83-5.55-.67,1.34-1.37,2.67-2,4-.81,1.35.1-1.55,1.09-4.39.54-1.41,1-2.54,1.41-3.5s.8-1.72,1.14-2.4c.67-1.35,1.22-2.34,1.9-3.67l2.26-5.63c.76-1.88,1.62-3.71,2.43-5.58.56-2.28-3.27,4.75-5.89,10.24s-4.34,9.3-.87,0l2.82-5.42c.91-2.1,2-4.31,3.11-6.6s2.39-4.54,3.53-6.76L26,883.23c1.14-1.87,2.13-3.56,2.87-5,.77-.88,1.7-1.82,2.57-2.88s1.75-2.21,2.73-3.33c2-2.24,3.87-4.68,5.92-6.72l1.46-1.53a16.8,16.8,0,0,1,1.43-1.38c1-.84,1.86-1.6,2.65-2.23a13.59,13.59,0,0,1,2.08-1.45,2.52,2.52,0,0,1,1.36-.37,68.68,68.68,0,0,1,12.41-7,83.51,83.51,0,0,1,14.11-4.62c9.77-2.33,20-3.1,29.87-3.73,19.81-1.23,39.61-2.33,56.85-2.47,5.9-1.55,5.76-3.81,20.6-6.17,3,0,7.52-.1,6,.27l10.42-1.28c-6,.37-13.45.92-16.46.65,16.41-1.55-7.51-.54-6.09-1.27l22.39-2-2.65-.09c-20.08,1-40.15,1.9-60.23,2.74l-30.12,1.24c-10.08.45-20.85.93-32,3.34Z"/><path class="cls-2" d="M705.79,645.85l-1.2-.78c16.19-13.75,33.46-26.94,51.62-39.55a666.74,666.74,0,0,1,57.38-35.67,627.61,627.61,0,0,1,62.9-30.37c5.5-2.18,11-4.46,16.54-6.58s11.2-4.14,16.83-6.14a130.29,130.29,0,0,1,16.73-4.8,50.69,50.69,0,0,1,16.29-.9l2,.3,1.92.42a28.07,28.07,0,0,1,3.61,1.15,30.2,30.2,0,0,1,6.8,3.7,35.68,35.68,0,0,1,5.85,5.28,37.29,37.29,0,0,1,4.53,6.48,33.31,33.31,0,0,1,4,15.19,38.22,38.22,0,0,1-2.94,15.79,53.47,53.47,0,0,1-9.12,14.13,74.51,74.51,0,0,1-13.1,11.64,79.9,79.9,0,0,1-7.63,4.82l-4,2.3c-1.33.77-2.65,1.58-4,2.22l-8.28,4.12-8.53,3.59a172.21,172.21,0,0,1-35.82,9.74l-4.63.66c-1.54.21-3.07.47-4.63.54-3.11.22-6.22.5-9.33.69l-9.37.1c-3.13-.06-6.25-.31-9.38-.46a166.26,166.26,0,0,1-36.93-7.1l-4.5-1.46-2.25-.73-2.2-.88-4.4-1.76-2.2-.88c-.73-.29-1.47-.57-2.18-.93l-8.57-4.09c-1.42-.7-2.78-1.47-4.18-2.2s-2.74-1.56-4.09-2.37a151.08,151.08,0,0,1-52.93-53.51,131.85,131.85,0,0,1-14.05-35.15,128.36,128.36,0,0,1-3.18-37.76,139.35,139.35,0,0,1,7.68-37.37,172.47,172.47,0,0,1,16.91-34.75c13.8-22,31.87-41.57,51.84-58.78l3.78-3.2,3.89-3.15,7.77-6.31c2.6-2.09,5.28-4.08,7.92-6.13s5.25-4.11,8-6.05c5.42-3.91,10.74-7.94,16.28-11.7l8.23-5.71,8.36-5.54c22.3-14.77,45.41-28.31,68.84-41.25s47.21-25.21,71-37.42l17.83-9.15,4.55-2.36c1.54-.83,3.08-1.66,4.59-2.54q4.58-2.58,9-5.47A143,143,0,0,0,1032.45,185a104.62,104.62,0,0,0,14.72-15.9,97.32,97.32,0,0,1-3.63,12.18,93.84,93.84,0,0,0,14.25-20.54,71.14,71.14,0,0,0,7.39-25.37,70,70,0,0,0-.08-13.43,72,72,0,0,0-2.71-13.17,69.89,69.89,0,0,0-5.29-12.37,78.16,78.16,0,0,0-7.36-10.95,93.07,93.07,0,0,0-8.8-9.35,107.7,107.7,0,0,0-9.74-7.89c-1.68-1.22-3.39-2.35-5.11-3.48l-5.15-3.15-5.27-3c-1.79-.93-3.6-1.82-5.39-2.73a144.44,144.44,0,0,0-46.11-13.5,143,143,0,0,0-47.33,2.38,146.73,146.73,0,0,0-42.92,16.94,154.21,154.21,0,0,0-18.49,12.83l-4.25,3.58c-1.39,1.21-2.7,2.48-4,3.72s-2.7,2.45-4,3.73l-3.78,3.87a296.37,296.37,0,0,0-26.45,32.14,307.92,307.92,0,0,1,28.24-30.86c-6.43,7.22-14.88,17.48-23.93,29.91s-18.85,26.9-29.24,41.75c-5.22,7.41-10.58,14.93-16.24,22.19-2.77,3.68-5.73,7.2-8.6,10.76s-5.92,6.94-9,10.19c-12.34,13.05-26.21,23.56-39.44,30.27,1.54-1.27,3-2.63,4.45-4a145.4,145.4,0,0,0,18.65-13.34c4.15-3.49,6.56-5.85,7.92-7.17,2.62-2.72,1-1.25-1.89,1a61.72,61.72,0,0,1-9.05,6.31c-1,.5-1.47.5-1-.34a50,50,0,0,1,4.7-5.42c3.31-3.15,6.5-6.41,9.52-9.83-2,1.76-4.09,3.44-6.17,5.09-3.17,3.24-6.51,6.33-9.94,9.31A7.43,7.43,0,0,1,733,215c.92-1.24,3-3.23,7.61-7.63a155.58,155.58,0,0,1-13.93,11.24,89.86,89.86,0,0,1-19.9,9,31.75,31.75,0,0,1-10.41,1.69c-4.22-.37-3.67-2.46-2.43-5-4,1.62-3.55,2.62-6.62,4.37a18.68,18.68,0,0,1-3.11,1.33c-.68.21-1.43.44-2.29.67s-1.82.38-2.89.58-2.25.27-3.56.42c-.66,0-1.33,0-2,.07a18.36,18.36,0,0,1-2.22,0A39.44,39.44,0,0,1,660.59,230l2.25-.14c.74,0,1.49-.19,2.22-.27-.73-.09-1.49-.1-2.21-.25l-2.2-.37c-.72-.15-1.43-.35-2.16-.51a19.4,19.4,0,0,1-2.14-.61c-.71-.25-1.45-.4-2.13-.71l-2.11-.82c-.7-.29-1.37-.66-2.06-1l-1-.49-1-.58A55.72,55.72,0,0,1,632.94,212a91.87,91.87,0,0,1-8.46-16.78,122.54,122.54,0,0,1-8.66-18.95,110.91,110.91,0,0,1-5.09-21.15c-1.18-1.51-2.28-3.06-3.43-4.63-2.52-19-2.8-39.83-2.16-61.75.32-11,.83-22.21,1.27-33.68a153.6,153.6,0,0,0,0-18.73,57.47,57.47,0,0,0-1.93-10.93,42.72,42.72,0,0,0-2.12-5.78l-.68-1.44-.76-1.39c-.27-.47-.49-.92-.8-1.4l-.94-1.44a31.69,31.69,0,0,0-2.11-2.81c-.76-.91-1.59-1.76-2.42-2.59A30.34,30.34,0,0,0,589,4.26,31.48,31.48,0,0,0,575.6.11a37.81,37.81,0,0,0-6.5.06c-1,.07-2,.24-3,.37s-1.93.35-2.86.57A58.18,58.18,0,0,0,552.87,4.6a80.91,80.91,0,0,0-17.24,10.55c-.65.51-1.28,1-1.92,1.57L532,18.18l-3.3,2.88-3.3,2.87c-1.09,1-2.14,2-3.21,2.94a479.14,479.14,0,0,0-45.91,48.6c-4.69,8.15-14.52,20.74-25.24,37.13A339.41,339.41,0,0,0,419.93,171l5.62-8.54c.92-1.42,1.88-2.82,2.86-4.21l2.9-4.18c6.59-10.84,15.18-25.34,26-41.45,2.65-4.06,5.6-8.13,8.54-12.36,1.46-2.12,3.07-4.18,4.62-6.32s3.11-4.31,4.79-6.43c6.54-8.6,13.71-17.28,21.27-25.93s15.81-17.05,24.34-25.2l6.51-6c1.07-1,2.18-2,3.3-2.95l3.34-2.9,3.34-2.89c1.19-1,2.43-2,3.68-2.91a76,76,0,0,1,7.84-5.13,54.46,54.46,0,0,1,17.89-6.7,32.53,32.53,0,0,1,10.39-.07,24.21,24.21,0,0,1,9.9,4.06,26,26,0,0,1,7.07,7.74,32.79,32.79,0,0,1,3.7,8.87,60.67,60.67,0,0,1,1.53,16.89c-.5-1.1-1-2.2-1.54-3.29a51.36,51.36,0,0,0-2-12.67,33.22,33.22,0,0,0-2.42-5.91,30.44,30.44,0,0,0-3.72-5.4,21.82,21.82,0,0,0-11.92-6.95,33.79,33.79,0,0,0-15.54.87,47.15,47.15,0,0,0-4.39,4.45c2.26-.34,4.76-.73,7.45-.95a35.27,35.27,0,0,1,8.44.18,16.56,16.56,0,0,1,11.35,6.63,22.45,22.45,0,0,1,2.47,4.26,34.35,34.35,0,0,1,2.62,10.61,100.59,100.59,0,0,1,.37,12.29c-.18,8.59-.35,17.54-.38,26.42-.08,17.77.49,35.42,1.91,50.3.69,7.44,1.55,14.19,2.35,20s1.58,10.6,2.11,14.19c.49,3.82,1.09,7,1.48,9.62s.82,4.67,1.07,6.26c.56,3.14.57,4.39.2,4.28s-1.13-1.6-2.11-3.91c-.46-1.16-1-2.53-1.48-4s-1.06-3.16-1.55-4.89a178.52,178.52,0,0,1-4.51-19.49,33.94,33.94,0,0,0-.7-3.42,50.37,50.37,0,0,0,.64,5.54c-.79-4.27-1.32-7.8-1.82-10.64s-.82-5-1.14-6.53c-.6-3.06-1.06-3.65-1.4-2.31-.69,2.69-1,13.1.32,26.83A192,192,0,0,0,589.16,179a164.12,164.12,0,0,0,7,23.23,137.65,137.65,0,0,0,9.77,20.31c1.68,3,3.53,5.59,5.1,8,.83,1.17,1.67,2.25,2.41,3.27s1.41,2,2.11,2.79l3,3.42c.5.58,1.05,1.15,1.63,1.7l1.73,1.68,1.78,1.7c.61.57,1.27,1.09,1.91,1.63,1.3,1.08,2.6,2.2,4.06,3.21a74.06,74.06,0,0,0,20.07,10.45,78.86,78.86,0,0,0,11.93,3,82.59,82.59,0,0,0,12.64,1,90,90,0,0,0,12.88-.87,103.82,103.82,0,0,0,12.74-2.69,122.11,122.11,0,0,0,24.36-9.75,156.8,156.8,0,0,0,22.38-14.36,185.93,185.93,0,0,0,20.2-18l2.35-2.48c.78-.83,1.57-1.66,2.28-2.48,1.46-1.66,2.93-3.31,4.4-5s2.86-3.35,4.27-5,2.84-3.38,4.2-5.09c11-13.67,21-27.82,30.79-41.42s19.42-26.75,29.49-38.31c5-5.89,10.18-11.15,15.35-16.18l4-3.54,2-1.76c.65-.6,1.33-1.1,2-1.65,1.33-1.08,2.64-2.17,4-3.16s2.69-2,4.08-3A123.59,123.59,0,0,1,909.5,73.17a113.82,113.82,0,0,1,59.73-4.63,120.08,120.08,0,0,1,15.35,4,124,124,0,0,1,14.89,6.22l3.62,1.87,3.57,2c1.19.66,2.33,1.43,3.5,2.14l1.74,1.1,1.66,1.11a78.24,78.24,0,0,1,11.93,10,51.49,51.49,0,0,1,8.59,11.77,39.77,39.77,0,0,1,4.23,13.2c1.37,9.47-.64,18.71-5.68,27.42s-12.87,16.65-21.94,23.44a138.94,138.94,0,0,1-14.45,9.41c-2.54,1.45-5.08,2.79-7.74,4.14l-8.5,4.27c-45.32,22.7-90.77,45.46-132.42,70.75-20.83,12.6-40.69,25.84-59.12,39.62-4.57,3.51-9.14,6.92-13.57,10.42s-8.73,7-13,10.59a326.39,326.39,0,0,0-24.27,22.56,227.43,227.43,0,0,0-41.14,56.9c-1.47,2.85-2.79,5.8-4.14,8.75s-2.56,6-3.7,9.07a168,168,0,0,0-6,18.89,161.19,161.19,0,0,0-5.08,39.31c-.06,1.64.05,3.27.07,4.9s.06,3.24.2,4.86.21,3.21.32,4.82l.51,4.78A160.94,160.94,0,0,0,682,515.43a156.64,156.64,0,0,0,5.27,17.23,166.08,166.08,0,0,0,6.63,15.67c2.4,4.93,4.87,9.61,7.45,14s5.15,8.47,7.72,12.27c5.11,7.63,10,14.17,14.21,19.77a176.22,176.22,0,0,0,31.48,25.35c2.87,1.8,5.78,3.53,8.77,5.16s6,3.06,9,4.55l4.53,2.18c1.53.7,3.1,1.29,4.65,1.93l4.67,1.9,2.33.94c.79.31,1.59.55,2.39.82l9.58,3.18,9.77,2.57c.82.2,1.63.43,2.45.61l2.48.49,5,1c1.66.3,3.31.67,5,.9l5,.64a181.08,181.08,0,0,0,40.44.8l-3.32,1.8a192,192,0,0,0,29.62-4.64c2.44-.6,4.85-1.33,7.28-2l3.64-1c.6-.18,1.22-.33,1.82-.53l1.78-.62c4.75-1.71,9.59-3.21,14.19-5.32l7-3c2.27-1.11,4.53-2.27,6.79-3.4,4.59-2.19,8.9-4.86,13.28-7.43l1.64-1,.82-.49.87-.56c1.15-.77,2.32-1.51,3.45-2.31l3.38-2.44,3.3-2.6a99.85,99.85,0,0,0,12.32-12,77.75,77.75,0,0,0,10.27-15,67.08,67.08,0,0,0,6.39-18.32c.26-1.64.57-3.28.74-4.94s.23-3.33.31-5-.07-3.33-.12-5a43.48,43.48,0,0,0-.5-5,58.41,58.41,0,0,0-6.36-19.3A59.12,59.12,0,0,0,977,511.43a56.07,56.07,0,0,0-17.29-10.8l-2.48-.93c-.85-.27-1.72-.52-2.58-.77-1.78-.54-3.34-.81-5-1.16a62.48,62.48,0,0,0-9.71-1,77.44,77.44,0,0,0-17.86,1.79,132.28,132.28,0,0,0-15.33,4.32c-4.8,1.6-9.11,3.29-13.55,5l-6.63,2.53-3.31,1.27L880,513.05l-13,5.43c-17.21,7.52-34,15.55-50.18,24.2-4.06,2.13-8,4.43-12,6.62l-6,3.32c-2,1.13-3.91,2.3-5.85,3.45L781.34,563,770,570.09c-3.78,2.33-7.45,4.8-11.1,7.25s-7.34,4.82-10.9,7.32c-7.11,5-14.23,9.9-21,15.06l-8.57,6.38-7.65,6.1-7,5.64c-2.2,1.82-4.24,3.64-6.22,5.35-3.94,3.46-7.58,6.57-10.84,9.57l-9,8.36C666.5,651.52,658.22,659,647,666.83c-21.91,19.92-42.3,42.19-64.48,61.79a319.93,319.93,0,0,1-35.17,27.06,329.36,329.36,0,0,1-39,22.22c-27.08,13.11-56.06,22.54-85.06,29.3s-58.12,10.79-86,13.48c.55,1.31-14.88,4.17,5.84,3,14.26-1.79,29-3.62,43.14-5.57s27.59-4,39.35-5.94c23.5-3.92,40.19-7.42,41.71-6-6.88,2-13.82,3.83-20.79,5.52,12.65-2.22,25.24-5,37.72-8.34,7.63-3.2,15.21-6.51,22.6-10.19,6.17-1.65,9-2.27,9.68-1.93,9.83-4.15,19.16-8.63,28.25-13.31s17.85-9.75,26.51-15.12l6.44-4.14c2.15-1.39,4.22-2.9,6.35-4.36,4.28-2.9,8.44-6,12.62-9.22,8.33-6.42,16.55-13.34,24.87-20.74,10.89-11.39,22.27-23.66,35.72-36.79A556.61,556.61,0,0,1,705.79,645.85Z"/></g></g></g></svg>