<svg xmlns="http://www.w3.org/2000/svg" viewBox="0 0 511.45 965.42"><defs><style>.cls-1{opacity:0.95;}.cls-2{fill:#fff;}</style></defs><g id="Calque_2" data-name="Calque 2"><g id="Calque_1-2" data-name="Calque 1"><g class="cls-1"><path class="cls-2" d="M452.7,896l.36,1.09c.44,1.27,1,2.49,1.47,3.72,2.32,4,6.06,12.47,12.51,22.59.15-.1-.28-1.07,2.13,2.38,2.59,4,4.3,6.35,5.48,7.94s1.8,2.38,2.36,3c1.12,1.28,1.86,2,6.28,7.13-2.66-3.18-5.9-7.28-7-9,5.29,6.87,10.91,13.42,16.67,19.78-2.1-2.88-3.72-5.32-.66-2.27-1.2-2.41,5,3.35,7.75,5.18-3-3.44-5.38-6.22-6.44-7.57.63.26,3.61,3.44,7.28,7.36-.22-.35-.46-.73-.95-1.38.49.65.73,1,.95,1.38l7.59,8.11c-1.34-1.55-2.67-3.1-1.88-2.45-3.49-3.73-7-7.48-10.36-11.29-.28-.41.09-.08.75.57l-2.76-2.84,1.88,2.39c.6.88-.85-.59-2.26-2.06a68.44,68.44,0,0,1-4.54-5.53q-2.78-3-5.47-6.12c-1.17-1,2.12,3.24,4.73,6.4s4.41,5.35-.12.46l-2.54-3.24c-4-4.63-9-11.17-11.69-14.36-1.52-2.72-4.09-6.26-6.14-9.41s-3.64-5.83-3.51-6.5a136.51,136.51,0,0,1-7.87-17.3,95.13,95.13,0,0,1-5.05-19.81,76.38,76.38,0,0,1-.12-20.48c.1-.83.13-1.67.29-2.48s.32-1.62.47-2.43c.33-1.6.6-3.2,1-4.74l1.31-4.53c.23-.74.43-1.48.67-2.19s.54-1.41.8-2.11a44.72,44.72,0,0,0,.49-5.06c.14-.92.35-2,.73-3.53a43,43,0,0,1,1.89-5.84c1-1.85,2.41-4.67,2.07-3.64,1-2.23,2.06-4.4,3.09-6.61l-3,5.76c-.91,1.88-1.74,3.51-2.29,4.41,2.35-5.26,1.68-4.14.44-1.83-.62,1.16-1.4,2.62-2,3.72s-.95,1.9-.92,1.63c.24-.61.47-1.24.73-1.85l.81-1.8,1.62-3.61c1.08-2.4,2.32-4.7,3.48-7.06l-1,1.58A150.44,150.44,0,0,0,453.25,831l-1.81,5.09c-.54,1.72-1,3.48-1.48,5.23-.24.87-.49,1.74-.71,2.63l-.53,2.68-.52,2.69c-.15.9-.39,1.79-.46,2.71l-.58,5.47-.14,1.37c0,.46,0,.92-.06,1.38l-.1,2.76a90.08,90.08,0,0,0,.56,11c.08.91.22,1.82.36,2.73s.26,1.82.42,2.72c.35,1.8.67,3.61,1.12,5.38a101.12,101.12,0,0,0,3.09,10.49Z" transform="translate(-4.8)"/><path class="cls-2" d="M357.68,552.75l.53.53a103,103,0,0,0-20.36,10.41c-3.2,2.13-6.29,4.41-9.31,6.79s-5.93,4.91-8.81,7.48c-11.47,10.3-22,21.77-33.51,32.18a142,142,0,0,1-18.39,14.3,92.9,92.9,0,0,1-10.19,5.65,73.6,73.6,0,0,1-10.92,4.09,66.24,66.24,0,0,1-23.23,2.38,75.7,75.7,0,0,1-23.11-5.79,95.72,95.72,0,0,1-20.88-12.53A113.76,113.76,0,0,1,162,600.73a116.06,116.06,0,0,1-13.47-21.16c-1-1.86-1.77-3.81-2.65-5.73s-1.56-3.92-2.33-5.88A109.21,109.21,0,0,1,140,555.8a100.11,100.11,0,0,1-2.07-12.53q-.19-3.19-.37-6.42l-.19-3.21c-.09-1.07,0-2.15,0-3.23l.09-6.46c0-1.08.1-2.16.19-3.23l.27-3.24.27-3.23.13-1.62.24-1.61,1-6.45c.25-2.16.8-4.28,1.22-6.42s.84-4.28,1.39-6.4,1.13-4.23,1.7-6.35c.29-1,.53-2.12.87-3.17l1-3.14c.67-2.09,1.35-4.19,2-6.29s1.54-4.13,2.31-6.21l1.16-3.11c.4-1,.85-2,1.27-3.07l2.57-6.13a414.56,414.56,0,0,1,25.17-47.47c9.41-15.42,19.59-30.55,29.53-46s19.74-31.1,28.33-47.61l3.21-6.19,3-6.3,1.51-3.15,1.41-3.21,2.8-6.43,2.55-6.54,1.27-3.27c.4-1.1.76-2.22,1.14-3.33l2.26-6.66,1.94-6.78,1-3.39c.3-1.14.54-2.29.8-3.44l1.57-6.89c.44-2.31.79-4.65,1.19-7l.59-3.49c.19-1.16.3-2.37.45-3.55,1-9.51,1-19.35-1.71-29a43.27,43.27,0,0,0-6.52-13.77,35.6,35.6,0,0,0-11.67-10.29A38.25,38.25,0,0,0,230,176.12a54.32,54.32,0,0,0-14.89.73,78.31,78.31,0,0,0-14,4,102,102,0,0,0-13,6,168.16,168.16,0,0,0-23.41,15.48A179.42,179.42,0,0,0,127.1,243.1c.65-2.47,1.38-4.92,2.1-7.41a194.45,194.45,0,0,0-15.46,26.19,185.4,185.4,0,0,0-11.32,28.9A182.52,182.52,0,0,0,96,321.51a175.64,175.64,0,0,0-.83,31.43c.71,10.51,2.5,20.59,4.09,30.47s3.1,19.55,3.47,29-.44,18.79-3.44,27.22c-.2.53-.36,1.06-.57,1.57l-.54,1.32c-.28.74-.65,1.45-1,2.18l-.56,1.07c-.21.33-.29.88-.77.69-.79,0-1.57-.07-2.37-.13l-2.48-.3-3.17-.63a55.11,55.11,0,0,1-6.24-1.81A54.2,54.2,0,0,0,88,445.76l1.63.4.82.2.4.1.33.05,2.67.47,2.65.28c.27.12.32-.19.44-.35l.34-.56c.22-.38.46-.75.66-1.15.41-.78.86-1.56,1.21-2.37l.65-1.43.63-1.56c-.24.73-.46,1.52-.78,2.3l-.39,1.06q-.18.53-.42,1.05c-.32.7-.61,1.46-1,2.21l-.58,1.16-.15.29c-.07.08-.2,0-.3,0l-.65,0c-.87-.05-1.78,0-2.74-.15s-1.92-.21-3-.37l-3.52-.7c-1.18-.32-2.39-.62-3.61-1-9.74-3-20-9.5-28.14-18.66A89.28,89.28,0,0,1,44.19,412a106.43,106.43,0,0,1-13.87-50.24c.25,1.33.56,2.64.83,3.95a105.13,105.13,0,0,0,2.25,15.51c.39,1.8.79,3.25,1.07,4.42l.77,2.63c.75,2.47.42,1-.13-1.43a50.88,50.88,0,0,1-1.18-7.45c0-.76.07-1,.36-.45s.72,2,1.6,4.63c.81,3,1.82,6,2.88,8.93-.44-1.78-.92-3.54-1.27-5.33-1-3-1.74-6-2.44-9a5.34,5.34,0,0,1,.9,1.47c.39,1,.9,2.9,2.12,7.11a101.88,101.88,0,0,1-2.51-12.1,73.16,73.16,0,0,1,.14-15.24,42.53,42.53,0,0,1,1.52-7.48c.46-1.42,1-1.91,1.44-1.83s.84.72,1.33,1.56c.11-3.41-.4-3.38-.63-6.14a37.32,37.32,0,0,1,.32-7c.1-.89.18-1.88.36-3l.6-3.6c.41-2.62,1.1-5.7,1.94-9.35l-.14,3.95c1.73-10.72,4.23-21.49,7-32.31,1.66-4.69,3.38-9.38,5.1-14.11,3-11.68,4.93-19.31,8.31-31.44l-.36-4,1.23-5.19c.21-.87.41-1.75.62-2.63l.5-2.68q1-5.38,2-10.9c.39-1.84.56-3.72.8-5.59l.7-5.67.69-5.72c.18-1.92.25-3.85.38-5.79a264.39,264.39,0,0,0-.83-47.51l-.67-6c-.25-2-.37-4-.75-5.95q-1-5.93-2-11.81c-.28-2-.75-3.91-1.18-5.85s-.86-3.86-1.28-5.79l-1.28-5.77-1.57-5.66A310.61,310.61,0,0,0,45.1,63.47c-1.63-2.72-3.54-6.55-5.78-11.18l-4-7.36-2.15-4.07L32.1,38.74l-1.26-2.11-5.35-8.89-1.4-2.32c-.49-.77-1-1.52-1.55-2.28l-3.22-4.62C15.13,12.18,9.94,6.14,4.8,0l7.39,11.67c1.29,1.72,2.45,3.75,3.82,5.83l4.31,6.66c1.6,2.29,3,4.88,4.56,7.52l4.86,8.22,4.73,9c.82,1.55,1.64,3.12,2.48,4.7l2.27,4.94c1.51,3.34,3.14,6.72,4.65,10.2s2.82,7.12,4.26,10.74c.36.91.72,1.81,1.09,2.72s.63,1.86,1,2.79l1.89,5.62c.63,1.87,1.26,3.76,1.89,5.65s1.1,3.83,1.65,5.75l1.6,5.77.8,2.89c.27,1,.53,1.92.73,2.9l2.53,11.65c.19,1,.45,1.93.6,2.9l.46,2.91c.31,1.93.61,3.86.92,5.78s.6,3.82.9,5.71.4,3.8.6,5.67c.35,3.76.77,7.44,1,11.06s.28,7.18.42,10.63l-.87-2.13c-.22-2.88-.43-5.56-.63-8.19s-.69-5.17-1-7.81-.69-5.36-1-8.32-1-6.1-1.43-9.64l-1.91-3.46a94.13,94.13,0,0,0,.49,11.22c.26,2.16.3,4.5.5,6.93s.38,5,.62,7.64.37,5.39.53,8.2.34,5.7.51,8.62c.13,1.47.08,2.94.12,4.43l.07,4.47.09,4.5c0,1.5.11,3,0,4.51-.16,24.06-4,47.63-6.91,57.13-3,10.13-4.36,13.41-4.58,13a9.84,9.84,0,0,1,.35-2.93c.3-1.65.75-3.85,1.26-6.2,2-9.41,4.25-21.5,2.15-11.74a96.43,96.43,0,0,0,1.66-11.4c.16-2.06,0-2.48-.34-1.67a52.11,52.11,0,0,0-1.7,5.81c-.34,1.46-.84,3.13-1.37,5s-1,3.85-1.72,6c-2.49,8.49-5.92,18.87-9.17,28.32s-6.21,18-7.95,22.68c-2.24,6.54-4.63,14.15-6.83,22.76a198.17,198.17,0,0,0-5.07,28.76c-.12,1.32-.28,2.63-.37,4l-.2,4c-.06,1.37-.14,2.72-.17,4.11s0,2.85,0,4.28a112.25,112.25,0,0,0,1.75,17.36A116.34,116.34,0,0,0,35,414.48c5.89,11,13.78,21.34,24.06,29.36a72.24,72.24,0,0,0,16.85,9.89c1.52.61,3.06,1.16,4.6,1.7s3.12,1,4.71,1.33l2.38.53,1.21.26,1.89.24c2.53.31,5,.69,7.63.83l3.89.29.49,0,.24,0c.06,0,.09-.13.13-.19l.48-.85,1-1.71c1.3-2.25,2.49-4.53,3.7-6.8.29-.58.57-1.16.83-1.78l.62-1.43c.33-.72.58-1.46.86-2.19.58-1.46,1-2.94,1.49-4.41a80.28,80.28,0,0,0,3-17.43c.72-11.28-.4-21.52-1.55-30.67-1.18-7.62-2.58-15.19-3.76-22.77A173.84,173.84,0,0,1,107.44,346a157.37,157.37,0,0,1,6-46.86,171.58,171.58,0,0,1,20-44.79,168.06,168.06,0,0,1,32.29-37.59,157.71,157.71,0,0,1,19.87-14.6c1.76-1,3.48-2.15,5.27-3.12s3.58-2,5.34-2.88a84.18,84.18,0,0,1,10.77-4.6c7.26-2.5,14.76-3.93,21.47-3.25a27.68,27.68,0,0,1,9.23,2.45c.66.38,1.33.73,2,1.08s1.23.89,1.86,1.31a24.08,24.08,0,0,1,3.3,3.08c4,4.52,6.27,10.83,7.23,17.6a78.13,78.13,0,0,1-.28,20.93,196,196,0,0,1-10.5,40.56A369.27,369.27,0,0,1,223.41,315c-7.27,14-15.65,28.42-24.1,42.19s-16.88,27-24.24,38.68S161.39,417.71,156.44,425c-8.08,15-15.42,30.51-20.91,46.93l-2,6.18c-.35,1-.65,2.07-.92,3.12l-.86,3.14c-.56,2.11-1.18,4.19-1.68,6.31l-1.37,6.41-.69,3.2c-.19,1.08-.34,2.17-.51,3.25l-1,6.5c-.19,1.08-.28,2.18-.37,3.28l-.29,3.29-.29,3.29c-.09,1.1-.24,2.19-.23,3.3-.26-.76-.46-1.53-.65-2.29a159.75,159.75,0,0,0,.17,19.56l.15,2.46c0,.82.09,1.64.22,2.49.21,1.69.4,3.38.65,5.06l.9,5c.35,1.66.76,3.3,1.14,5a126,126,0,0,0,43.78,67.26,99.26,99.26,0,0,0,37.08,18.43,78.1,78.1,0,0,0,41.73-1,89.48,89.48,0,0,0,18.73-8.24,125.78,125.78,0,0,0,16.13-11.26c10-8.12,18.52-16.94,26.85-25.26s16.42-16.25,25-22.8a121.65,121.65,0,0,1,10.53-7.26c1.66-.95,3.2-2,4.79-2.74s3-1.62,4.52-2.27a91.81,91.81,0,0,1,15.62-5.72,69.64,69.64,0,0,1,12.77-2.19,57,57,0,0,1,12.13.37A122.93,122.93,0,0,1,465,580.85a120.79,120.79,0,0,1,11.46,9.5,116.49,116.49,0,0,1,10.08,11,131.17,131.17,0,0,1,8.59,12.38c10.43,17.26,16.41,37.19,18.17,57a150.76,150.76,0,0,1-5.93,57.33c.38,0-.06,2.48,0,3.37,0,.44.15.49.58-.4a47.25,47.25,0,0,0,2.2-6,188.91,188.91,0,0,0,5.11-28.64,181.69,181.69,0,0,0,.69-26.73c-.35-8-1.22-14.87-1.91-19.8-.32-2.48-.66-4.46-.77-5.91a5.75,5.75,0,0,1,0-2.54c.68,2.33,1.17,4.72,1.74,7.08s1,4.77,1.34,7.18a139.8,139.8,0,0,0-5.42-25.62,131.64,131.64,0,0,0-7.44-15.12c-1.66-4-2.33-5.85-2.26-6.25a133.28,133.28,0,0,0-11.92-17.62,121.17,121.17,0,0,0-14.41-15,124.42,124.42,0,0,0-37-22.53,139.25,139.25,0,0,0-16.55-4.28,137.12,137.12,0,0,0-18.68-2.38A117.55,117.55,0,0,0,357.68,552.75Z" transform="translate(-4.8)"/></g></g></g></svg>