<svg xmlns="http://www.w3.org/2000/svg" viewBox="0 0 195.31 533.5"><defs><style>.cls-1{fill:#be7b35;opacity:0.95;}</style></defs><g id="Calque_2" data-name="Calque 2"><g id="Calque_1-2" data-name="Calque 1"><path class="cls-1" d="M173.41,452.3c26.66-76.66,21.9-143.07,21-154-6.51-79.52-31.19-80.94-26-142,3.91-45.91,19.61-65.66,7-100-1.67-4.56-17.91-46.92-55-55C73.25-9,33.2,45.05,29.41,50.3c-19.39,26.89-22.19,56-27,113-2.95,34.93-.45,38.88-1,115-.57,79.63-3.37,84.59,1,112,5.29,33.16,11.8,70.83,41,103,8.08,8.9,43.08,47.45,77,39C148,525.43,159.87,491.23,173.41,452.3Z"/></g></g></svg>