<svg xmlns="http://www.w3.org/2000/svg" viewBox="0 0 416.92 340.43"><defs><style>.cls-1{fill:#ca9e91;opacity:0.95;}</style></defs><g id="Calque_2" data-name="Calque 2"><g id="Calque_1-2" data-name="Calque 1"><path class="cls-1" d="M12,295c-28.68-47.87-.53-115.89,29.83-153.12,35.09-43.05,85.4-60,103.05-66,30-10.11,37-5.82,62.79-17.95,48.15-22.65,49.75-49.84,78.72-56.57C326.44-7.95,375,32.14,398,69.77c26.53,43.42,20.58,86.14,9.57,165.15-6.88,49.39-12.12,83.43-38.39,99.37-14,8.51-25.95,6.95-78,2.64-72-6-108.06-8.95-119.62-8.8C102.87,329,79.26,345.78,44.46,326,39.2,323,23.12,313.59,12,295Z"/></g></g></svg>